<svg width="501" height="378" viewBox="0 0 501 378" fill="inheritColor"
    xmlns="http://www.w3.org/2000/svg">
    <g clip-path="url(#clip0_174_240)">
        <path
            d="M288.712 18.3973C293.009 27.5378 283.903 30.1269 273.472 35.026C263.041 39.9252 255.235 45.2793 250.937 36.1388C246.64 26.9984 243.153 8.85621 257.91 1.92548C273.175 -5.24402 284.414 9.25688 288.712 18.3973Z"
            fill="#2E2836" />
        <path
            d="M267.429 36.3732C275.185 36.3732 281.472 30.0893 281.472 22.3377C281.472 14.5861 275.185 8.30225 267.429 8.30225C259.674 8.30225 253.387 14.5861 253.387 22.3377C253.387 30.0893 259.674 36.3732 267.429 36.3732Z"
            fill="#FFB8B8" />
        <path
            d="M336.999 84.5821C336.513 83.9478 336.027 83.3249 335.535 82.7192C334.901 81.9306 334.262 81.1667 333.62 80.4276C326.341 72.033 318.6 66.7471 310.076 66.1813H310.064L309.938 66.1699L292.952 82.7192L287.177 88.3423L287.303 88.6508L290.419 96.4055H345.015C342.555 92.3249 339.879 88.3782 336.999 84.5821Z"
            fill="#2E2836" />
        <path
            d="M252.159 27.988L257.186 25.6271L256.486 18.3792L259.847 24.3773L262.25 23.2488L261.841 19.0209L263.802 22.5197L281.654 14.1351C279.978 10.5687 276.952 7.81408 273.244 6.47729C269.535 5.14049 265.447 5.33098 261.879 7.00684L259.291 8.22202C255.723 9.8979 252.967 12.9219 251.63 16.6287C250.292 20.3355 250.483 24.4216 252.159 27.988Z"
            fill="#2E2836" />
        <path
            d="M368.502 282.755H75.2911C72.79 282.752 70.3922 281.758 68.6236 279.99C66.8551 278.222 65.8602 275.826 65.8574 273.326V97.2307C65.8595 95.3993 66.5882 93.6434 67.8839 92.3484C69.1795 91.0533 70.9362 90.3249 72.7686 90.3228H370.905C372.769 90.3249 374.556 91.0659 375.874 92.3834C377.192 93.7008 377.933 95.487 377.935 97.3501V273.326C377.933 275.826 376.938 278.222 375.169 279.99C373.401 281.758 371.003 282.752 368.502 282.755Z"
            fill="#1C2039" />
        <path
            d="M84.4389 273.326H359.354C361.78 273.326 364.107 272.362 365.822 270.648C367.538 268.933 368.502 266.607 368.502 264.182V114.72C368.502 112.295 367.538 109.97 365.822 108.255C364.107 106.54 361.78 105.577 359.354 105.577H84.4389C82.0127 105.577 79.6859 106.54 77.9704 108.255C76.2548 109.97 75.291 112.295 75.291 114.72V264.182C75.291 266.607 76.2548 268.933 77.9704 270.648C79.6859 272.362 82.0127 273.326 84.4389 273.326Z"
            fill="#E1EFF6" fill-opacity="0.5" />
        <path
            d="M377.804 96.6909H65.7251V91.8905C65.7287 89.3824 66.7276 86.978 68.5026 85.2051C70.2776 83.4321 72.6837 82.4352 75.1932 82.4331H368.336C370.845 82.4352 373.252 83.432 375.027 85.205C376.802 86.978 377.8 89.3823 377.804 91.8905V96.6909Z"
            fill="inheritColor" />
        <path
            d="M82.9319 92.0244C84.2845 92.0244 85.3809 90.9285 85.3809 89.5767C85.3809 88.2248 84.2845 87.1289 82.9319 87.1289C81.5794 87.1289 80.4829 88.2248 80.4829 89.5767C80.4829 90.9285 81.5794 92.0244 82.9319 92.0244Z"
            fill="#CCCCCC" />
        <path
            d="M92.2273 92.0244C93.5799 92.0244 94.6763 90.9285 94.6763 89.5767C94.6763 88.2248 93.5799 87.1289 92.2273 87.1289C90.8748 87.1289 89.7783 88.2248 89.7783 89.5767C89.7783 90.9285 90.8748 92.0244 92.2273 92.0244Z"
            fill="#CCCCCC" />
        <path
            d="M101.523 92.0244C102.876 92.0244 103.972 90.9285 103.972 89.5767C103.972 88.2248 102.876 87.1289 101.523 87.1289C100.171 87.1289 99.0742 88.2248 99.0742 89.5767C99.0742 90.9285 100.171 92.0244 101.523 92.0244Z"
            fill="#CCCCCC" />
        <path
            d="M230.474 240.912H205.89C204.45 240.911 203.069 240.338 202.051 239.321C201.032 238.303 200.46 236.923 200.458 235.484V210.911C200.46 209.472 201.032 208.092 202.051 207.074C203.069 206.057 204.45 205.484 205.89 205.482H230.474C231.914 205.484 233.295 206.057 234.313 207.074C235.332 208.092 235.904 209.472 235.906 210.911V235.484C235.904 236.923 235.332 238.303 234.313 239.321C233.295 240.338 231.914 240.911 230.474 240.912ZM205.89 206.625C204.753 206.627 203.663 207.079 202.859 207.882C202.055 208.686 201.603 209.775 201.601 210.911V235.484C201.603 236.62 202.055 237.709 202.859 238.513C203.663 239.316 204.753 239.768 205.89 239.77H230.474C231.611 239.768 232.701 239.316 233.505 238.513C234.309 237.709 234.761 236.62 234.762 235.484V210.911C234.761 209.775 234.309 208.686 233.505 207.882C232.701 207.079 231.611 206.627 230.474 206.625H205.89Z"
            fill="#CCCCCC" />
        <path
            d="M225.615 234.055H210.749C210.295 234.055 209.859 233.874 209.537 233.552C209.216 233.231 209.035 232.795 209.034 232.341V214.054C209.035 213.6 209.216 213.164 209.537 212.843C209.859 212.521 210.295 212.34 210.749 212.34H221.521C221.911 212.34 222.29 212.474 222.595 212.718L226.689 216.006C226.889 216.166 227.051 216.37 227.162 216.601C227.273 216.832 227.33 217.086 227.33 217.342V232.341C227.329 232.795 227.149 233.231 226.827 233.552C226.505 233.874 226.069 234.055 225.615 234.055ZM210.749 213.483C210.598 213.483 210.453 213.543 210.345 213.65C210.238 213.757 210.178 213.903 210.178 214.054V232.341C210.178 232.492 210.238 232.637 210.345 232.745C210.453 232.852 210.598 232.912 210.749 232.912H225.615C225.766 232.912 225.912 232.852 226.019 232.745C226.126 232.637 226.186 232.492 226.186 232.341V217.342C226.187 217.257 226.168 217.172 226.131 217.095C226.094 217.018 226.04 216.95 225.973 216.897L221.879 213.609C221.777 213.527 221.651 213.483 221.521 213.483H210.749Z"
            fill="#CCCCCC" />
        <path
            d="M222.756 220.34H213.608C213.456 220.34 213.311 220.28 213.204 220.173C213.096 220.066 213.036 219.92 213.036 219.769C213.036 219.617 213.096 219.472 213.204 219.365C213.311 219.257 213.456 219.197 213.608 219.197H222.756C222.907 219.197 223.053 219.257 223.16 219.365C223.267 219.472 223.327 219.617 223.327 219.769C223.327 219.92 223.267 220.066 223.16 220.173C223.053 220.28 222.907 220.34 222.756 220.34Z"
            fill="#CCCCCC" />
        <path
            d="M222.756 223.769H213.608C213.456 223.769 213.311 223.709 213.204 223.601C213.096 223.494 213.036 223.349 213.036 223.197C213.036 223.046 213.096 222.901 213.204 222.793C213.311 222.686 213.456 222.626 213.608 222.626H222.756C222.907 222.626 223.053 222.686 223.16 222.793C223.267 222.901 223.327 223.046 223.327 223.197C223.327 223.349 223.267 223.494 223.16 223.601C223.053 223.709 222.907 223.769 222.756 223.769Z"
            fill="#CCCCCC" />
        <path
            d="M222.756 227.198H213.608C213.456 227.198 213.311 227.137 213.204 227.03C213.096 226.923 213.036 226.778 213.036 226.626C213.036 226.475 213.096 226.329 213.204 226.222C213.311 226.115 213.456 226.055 213.608 226.055H222.756C222.907 226.055 223.053 226.115 223.16 226.222C223.267 226.329 223.327 226.475 223.327 226.626C223.327 226.778 223.267 226.923 223.16 227.03C223.053 227.137 222.907 227.198 222.756 227.198Z"
            fill="#CCCCCC" />
        <path
            d="M288.792 240.912H264.207C262.767 240.911 261.386 240.338 260.368 239.321C259.35 238.303 258.777 236.923 258.775 235.484V210.911C258.777 209.472 259.35 208.092 260.368 207.074C261.386 206.057 262.767 205.484 264.207 205.482H288.792C290.232 205.484 291.612 206.057 292.631 207.074C293.649 208.092 294.222 209.472 294.223 210.911V235.484C294.222 236.923 293.649 238.303 292.631 239.321C291.612 240.338 290.232 240.911 288.792 240.912ZM264.207 206.625C263.07 206.627 261.98 207.079 261.176 207.882C260.372 208.686 259.92 209.775 259.919 210.911V235.484C259.92 236.62 260.372 237.709 261.176 238.513C261.98 239.316 263.07 239.768 264.207 239.77H288.792C289.929 239.768 291.019 239.316 291.822 238.513C292.626 237.709 293.079 236.62 293.08 235.484V210.911C293.079 209.775 292.626 208.686 291.822 207.882C291.019 207.079 289.929 206.627 288.792 206.625H264.207Z"
            fill="#CCCCCC" />
        <path
            d="M284.504 229.483H268.495C268.04 229.483 267.604 229.302 267.283 228.98C266.961 228.659 266.78 228.223 266.78 227.769V218.625C266.78 218.171 266.961 217.735 267.283 217.414C267.604 217.092 268.04 216.912 268.495 216.911H284.504C284.958 216.912 285.394 217.092 285.716 217.414C286.038 217.735 286.218 218.171 286.219 218.625V227.769C286.218 228.223 286.038 228.659 285.716 228.98C285.394 229.302 284.958 229.483 284.504 229.483ZM268.495 218.054C268.343 218.054 268.198 218.114 268.091 218.222C267.984 218.329 267.923 218.474 267.923 218.625V227.769C267.923 227.92 267.984 228.065 268.091 228.173C268.198 228.28 268.343 228.34 268.495 228.34H284.504C284.655 228.34 284.801 228.28 284.908 228.173C285.015 228.065 285.075 227.92 285.075 227.769V218.625C285.075 218.474 285.015 218.329 284.908 218.222C284.801 218.114 284.655 218.054 284.504 218.054H268.495Z"
            fill="#CCCCCC" />
        <path
            d="M276.5 224.705C276.178 224.705 275.863 224.616 275.591 224.446L267.049 219.11C266.92 219.03 266.829 218.902 266.795 218.754C266.761 218.607 266.787 218.452 266.868 218.323C266.948 218.195 267.076 218.104 267.224 218.069C267.371 218.035 267.526 218.061 267.655 218.141L276.197 223.477C276.288 223.533 276.393 223.563 276.5 223.563C276.607 223.563 276.712 223.533 276.803 223.477L285.344 218.141C285.473 218.061 285.628 218.035 285.776 218.069C285.923 218.104 286.051 218.195 286.131 218.323C286.212 218.452 286.238 218.607 286.204 218.754C286.17 218.902 286.079 219.03 285.951 219.11L277.409 224.446C277.136 224.616 276.821 224.705 276.5 224.705Z"
            fill="#CCCCCC" />
        <path
            d="M172.157 240.912H147.572C146.132 240.911 144.752 240.338 143.733 239.321C142.715 238.303 142.142 236.923 142.141 235.484V210.911C142.142 209.472 142.715 208.092 143.733 207.074C144.752 206.057 146.132 205.484 147.572 205.482H172.157C173.597 205.484 174.978 206.057 175.996 207.074C177.014 208.092 177.587 209.472 177.589 210.911V235.484C177.587 236.923 177.014 238.303 175.996 239.321C174.978 240.338 173.597 240.911 172.157 240.912ZM147.572 206.625C146.435 206.627 145.345 207.079 144.541 207.882C143.738 208.686 143.285 209.775 143.284 210.911V235.484C143.285 236.62 143.738 237.709 144.541 238.513C145.345 239.316 146.435 239.768 147.572 239.77H172.157C173.294 239.768 174.384 239.316 175.188 238.513C175.992 237.709 176.444 236.62 176.445 235.484V210.911C176.444 209.775 175.992 208.686 175.188 207.882C174.384 207.079 173.294 206.627 172.157 206.625H147.572Z"
            fill="#CCCCCC" />
        <path
            d="M167.869 229.483H151.86C151.405 229.483 150.97 229.302 150.648 228.98C150.326 228.659 150.146 228.223 150.145 227.769V218.625C150.146 218.171 150.326 217.735 150.648 217.414C150.97 217.092 151.405 216.912 151.86 216.911H167.869C168.324 216.912 168.76 217.092 169.081 217.414C169.403 217.735 169.584 218.171 169.584 218.625V227.769C169.584 228.223 169.403 228.659 169.081 228.98C168.76 229.302 168.324 229.483 167.869 229.483ZM151.86 218.054C151.709 218.054 151.563 218.114 151.456 218.222C151.349 218.329 151.289 218.474 151.289 218.625V227.769C151.289 227.92 151.349 228.065 151.456 228.173C151.563 228.28 151.709 228.34 151.86 228.34H167.869C168.021 228.34 168.166 228.28 168.273 228.173C168.38 228.065 168.441 227.92 168.441 227.769V218.625C168.441 218.474 168.38 218.329 168.273 218.222C168.166 218.114 168.021 218.054 167.869 218.054H151.86Z"
            fill="#CCCCCC" />
        <path
            d="M165.331 229.483H153.826C153.625 229.483 153.428 229.431 153.254 229.33C153.08 229.23 152.936 229.086 152.835 228.912C152.735 228.738 152.682 228.541 152.682 228.34C152.682 228.14 152.735 227.943 152.835 227.769L156.301 221.769C156.401 221.595 156.546 221.451 156.72 221.35C156.894 221.25 157.091 221.197 157.291 221.197C157.492 221.197 157.689 221.25 157.863 221.35C158.037 221.451 158.181 221.595 158.282 221.769L160.52 225.644L161.817 223.399C161.917 223.225 162.062 223.081 162.236 222.98C162.409 222.88 162.607 222.827 162.807 222.827C163.008 222.827 163.205 222.88 163.379 222.98C163.553 223.081 163.697 223.225 163.798 223.399L166.322 227.769C166.422 227.943 166.475 228.14 166.475 228.34C166.475 228.541 166.422 228.738 166.322 228.912C166.221 229.086 166.077 229.23 165.903 229.33C165.729 229.431 165.532 229.483 165.331 229.483ZM165.331 228.34L162.807 223.97L161.015 227.073C160.965 227.159 160.893 227.232 160.806 227.282C160.719 227.332 160.621 227.358 160.52 227.358C160.42 227.358 160.321 227.332 160.234 227.282C160.147 227.232 160.075 227.159 160.025 227.073L157.292 222.34L153.826 228.34H165.331Z"
            fill="#CCCCCC" />
        <path
            d="M166.154 221.483C166.785 221.483 167.297 220.971 167.297 220.34C167.297 219.708 166.785 219.197 166.154 219.197C165.522 219.197 165.01 219.708 165.01 220.34C165.01 220.971 165.522 221.483 166.154 221.483Z"
            fill="#CCCCCC" />
        <path d="M439.569 370.387L432.559 370.386L429.225 343.363L439.57 343.364L439.569 370.387Z"
            fill="#FFB8B8" />
        <path
            d="M441.356 377.178L418.755 377.177V376.891C418.755 375.736 418.982 374.593 419.424 373.526C419.867 372.46 420.515 371.49 421.331 370.674C422.148 369.857 423.118 369.21 424.185 368.768C425.253 368.326 426.397 368.099 427.552 368.099H427.553L441.357 368.099L441.356 377.178Z"
            fill="#2E2836" />
        <path d="M468.155 370.387L461.146 370.386L457.812 343.363L468.157 343.364L468.155 370.387Z"
            fill="#FFB8B8" />
        <path
            d="M469.943 377.178L447.342 377.177V376.891C447.342 375.736 447.569 374.593 448.011 373.526C448.453 372.46 449.101 371.49 449.918 370.674C450.735 369.857 451.705 369.21 452.772 368.768C453.84 368.326 454.984 368.099 456.139 368.099H456.139L469.943 368.099L469.943 377.178Z"
            fill="#2E2836" />
        <path
            d="M466.054 358.672L459.562 356.698C459.078 356.552 458.648 356.266 458.326 355.876C458.005 355.486 457.805 355.01 457.752 354.508L451.7 297.176C451.695 297.107 451.664 297.042 451.613 296.995C451.563 296.947 451.496 296.921 451.426 296.921C451.357 296.914 451.287 296.935 451.233 296.978C451.178 297.022 451.143 297.085 451.134 297.154L440.997 352.699C440.935 353.036 440.807 353.357 440.619 353.644C440.432 353.931 440.189 354.177 439.905 354.369C439.621 354.561 439.301 354.694 438.965 354.76C438.629 354.827 438.282 354.825 437.947 354.756L429.65 353.048C429.041 352.921 428.499 352.578 428.123 352.084C427.747 351.589 427.562 350.975 427.602 350.355L433.769 259.316L475.584 254.806L469.371 356.368C469.331 357.021 469.043 357.634 468.567 358.083C468.091 358.532 467.461 358.783 466.807 358.784C466.552 358.784 466.298 358.746 466.054 358.672Z"
            fill="#2E2836" />
        <path
            d="M466.014 180.035C473.77 180.035 480.057 173.751 480.057 165.999C480.057 158.248 473.77 151.964 466.014 151.964C458.259 151.964 451.972 158.248 451.972 165.999C451.972 173.751 458.259 180.035 466.014 180.035Z"
            fill="#FFB8B8" />
        <path
            d="M433.704 259.85L442.771 202.79C443.253 199.756 444.376 196.86 446.065 194.294C447.754 191.727 449.971 189.55 452.568 187.907C455.164 186.263 458.081 185.191 461.124 184.762C464.168 184.333 467.267 184.557 470.217 185.418C475.375 186.909 479.792 190.269 482.604 194.84C485.417 199.412 486.423 204.867 485.426 210.141L475.941 261.098L433.704 259.85Z"
            fill="inheritColor" />
        <path
            d="M469.891 270.06C470.593 269.597 471.184 268.986 471.624 268.27C472.063 267.554 472.34 266.751 472.436 265.916C472.531 265.081 472.442 264.236 472.175 263.439C471.908 262.643 471.469 261.914 470.89 261.305L480.264 243.161L469.707 244.287L462.424 261.345C461.465 262.385 460.921 263.741 460.895 265.155C460.87 266.569 461.364 267.943 462.284 269.018C463.205 270.092 464.488 270.791 465.89 270.983C467.292 271.176 468.715 270.847 469.891 270.06Z"
            fill="#FFB8B8" />
        <path
            d="M471.899 258.105C471.38 258.032 470.896 257.803 470.511 257.447L466.925 254.135C466.537 253.775 466.269 253.306 466.158 252.789C466.046 252.272 466.096 251.734 466.3 251.247L473.469 234.264L472.452 200.709C472.598 199.63 472.955 198.591 473.504 197.65C474.052 196.71 474.78 195.886 475.647 195.227C476.514 194.568 477.502 194.087 478.555 193.809C479.609 193.532 480.706 193.466 481.785 193.613C482.864 193.76 483.904 194.118 484.844 194.667C485.785 195.216 486.608 195.945 487.266 196.811C487.925 197.678 488.406 198.667 488.682 199.72C488.958 200.773 489.024 201.87 488.876 202.948L490.615 224.042C491.143 230.444 489.327 236.819 485.505 241.983L474.326 257.088C474.111 257.378 473.837 257.62 473.522 257.798C473.208 257.975 472.859 258.085 472.499 258.119C472.299 258.138 472.098 258.133 471.899 258.105Z"
            fill="inheritColor" />
        <path
            d="M385.148 158.352C385.301 159.178 385.633 159.961 386.122 160.645C386.61 161.328 387.242 161.897 387.974 162.31C388.706 162.723 389.52 162.971 390.358 163.036C391.196 163.1 392.038 162.981 392.824 162.685L405.886 178.388L408.965 168.232L396.089 154.877C395.505 153.589 394.468 152.56 393.175 151.985C391.882 151.41 390.423 151.329 389.074 151.758C387.726 152.186 386.581 153.094 385.857 154.309C385.134 155.525 384.881 156.963 385.148 158.352Z"
            fill="#FFB8B8" />
        <path
            d="M395.38 164.861C395.649 164.412 396.049 164.056 396.527 163.84L400.977 161.831C401.459 161.614 401.996 161.551 402.516 161.65C403.035 161.748 403.512 162.004 403.881 162.382L416.733 175.601L448.045 187.748C448.982 188.303 449.8 189.038 450.453 189.909C451.106 190.78 451.581 191.772 451.85 192.827C452.12 193.881 452.179 194.979 452.023 196.057C451.868 197.134 451.502 198.171 450.945 199.107C450.389 200.042 449.653 200.86 448.781 201.511C447.908 202.163 446.916 202.636 445.86 202.904C444.804 203.172 443.706 203.23 442.628 203.073C441.55 202.917 440.514 202.549 439.578 201.992L419.466 195.368C413.362 193.359 408.195 189.201 404.928 183.67L395.37 167.492C395.187 167.18 395.071 166.834 395.03 166.475C394.989 166.116 395.024 165.753 395.133 165.408C395.193 165.217 395.276 165.033 395.38 164.861Z"
            fill="inheritColor" />
        <path opacity="0.1"
            d="M477.405 214.667L476.833 232.953L466.3 251.246L475.095 230.861L477.405 214.667Z"
            fill="black" />
        <path
            d="M464.405 168.637C463.524 168.752 462.63 168.542 461.891 168.048C461.151 167.554 460.617 166.808 460.386 165.95C460.163 164.962 459.676 164.053 458.976 163.321C458.276 162.589 457.389 162.061 456.412 161.793C453.836 161.205 450.687 162.417 448.8 160.466C448.396 160.021 448.103 159.486 447.947 158.906C447.79 158.325 447.774 157.716 447.899 157.128C448.247 155.232 449.604 153.8 451.08 152.655C454.187 150.256 457.947 148.851 461.866 148.626C463.895 148.567 465.926 148.668 467.939 148.927C470.047 149.06 472.131 149.441 474.15 150.062C476.45 150.929 478.494 152.362 480.093 154.228C481.692 156.094 482.794 158.332 483.299 160.737C483.76 163.149 483.689 165.632 483.091 168.014C482.493 170.396 481.382 172.618 479.836 174.526C477.985 176.83 475.598 178.647 472.883 179.817C472.236 180.122 471.495 180.16 470.821 179.922C469.13 179.25 469.407 177.156 470.178 175.76C471.003 174.266 472.272 172.819 471.609 171.001C471.276 170.157 470.638 169.471 469.821 169.077C468.14 168.22 466.26 168.423 464.453 168.632L464.405 168.637Z"
            fill="#2E2836" />
        <path
            d="M380.455 176.563H206.646C204.145 176.56 201.747 175.566 199.979 173.798C198.21 172.03 197.215 169.634 197.212 167.134V129.99C197.215 127.49 198.21 125.093 199.979 123.325C201.747 121.558 204.145 120.563 206.646 120.561H380.455C382.956 120.563 385.354 121.558 387.123 123.325C388.891 125.093 389.886 127.49 389.889 129.99V167.134C389.886 169.634 388.891 172.03 387.123 173.798C385.354 175.566 382.956 176.56 380.455 176.563Z"
            fill="#CCCCCC" />
        <path
            d="M380.455 176.849H206.646C204.069 176.846 201.598 175.821 199.776 174C197.954 172.179 196.929 169.71 196.926 167.134V129.99C196.929 127.414 197.954 124.945 199.776 123.123C201.598 121.302 204.069 120.278 206.646 120.275H380.455C383.032 120.278 385.502 121.302 387.325 123.123C389.147 124.945 390.172 127.414 390.175 129.99V167.134C390.172 169.71 389.147 172.179 387.325 174C385.502 175.821 383.032 176.846 380.455 176.849ZM206.646 121.418C204.372 121.42 202.192 122.324 200.584 123.931C198.977 125.538 198.072 127.717 198.07 129.99V167.134C198.072 169.407 198.977 171.585 200.584 173.192C202.192 174.799 204.372 175.703 206.646 175.706H380.455C382.729 175.703 384.909 174.799 386.516 173.192C388.124 171.585 389.029 169.407 389.031 167.134V129.99C389.029 127.717 388.124 125.538 386.516 123.931C384.909 122.324 382.729 121.42 380.455 121.418H206.646Z"
            fill="#3F3D56" />
        <path
            d="M359.301 167.42H227.8C225.299 167.417 222.901 166.423 221.133 164.655C219.364 162.888 218.37 160.491 218.367 157.991V138.562C218.37 136.062 219.364 133.665 221.133 131.898C222.901 130.13 225.299 129.136 227.8 129.133H359.301C361.802 129.136 364.2 130.13 365.968 131.898C367.737 133.665 368.732 136.062 368.734 138.562V157.991C368.732 160.491 367.737 162.888 365.968 164.655C364.2 166.423 361.802 167.417 359.301 167.42Z"
            fill="#1C2039" />
        <path
            d="M256.099 156.948C262.329 156.948 267.38 151.899 267.38 145.672C267.38 139.444 262.329 134.396 256.099 134.396C249.868 134.396 244.817 139.444 244.817 145.672C244.817 151.899 249.868 156.948 256.099 156.948Z"
            fill="inheritColor" />
        <path
            d="M351.129 166.282L335.204 152.933L319.555 139.815C319.142 139.468 318.62 139.279 318.081 139.28C317.542 139.281 317.02 139.472 316.609 139.82L301.01 152.999L297.2 156.218L291.455 151.402L273.995 136.767C273.582 136.421 273.06 136.231 272.521 136.232C271.982 136.233 271.461 136.425 271.049 136.773L253.647 151.475L235.97 166.409C235.881 166.485 235.817 166.586 235.787 166.699C235.757 166.813 235.762 166.932 235.803 167.042C235.843 167.152 235.916 167.247 236.013 167.314C236.109 167.381 236.223 167.417 236.34 167.417L272.581 167.347L284.053 167.325L283.94 167.42L318.135 167.354L350.762 167.291C350.88 167.291 350.994 167.255 351.09 167.187C351.186 167.12 351.259 167.025 351.299 166.915C351.339 166.805 351.344 166.685 351.313 166.572C351.283 166.458 351.218 166.357 351.129 166.282Z"
            fill="#3F3D56" />
        <path
            d="M500.428 378H390.654C390.503 378 390.357 377.94 390.25 377.832C390.143 377.725 390.083 377.58 390.083 377.428C390.083 377.277 390.143 377.131 390.25 377.024C390.357 376.917 390.503 376.857 390.654 376.857H500.428C500.58 376.857 500.725 376.917 500.833 377.024C500.94 377.131 501 377.277 501 377.428C501 377.58 500.94 377.725 500.833 377.832C500.725 377.94 500.58 378 500.428 378Z"
            fill="#252C47" />
        <path
            d="M345.363 75.3816C344.907 74.6399 344.304 73.999 343.591 73.4979C342.878 72.9969 342.071 72.6462 341.218 72.4672C340.906 72.4015 340.588 72.3614 340.269 72.3472L296.708 33.4199C295.853 32.5408 294.711 31.9958 293.489 31.8827C293.248 31.855 293.006 31.8473 292.763 31.8598C291.758 31.9054 290.788 32.2428 289.972 32.8306C289.156 33.4185 288.528 34.2313 288.167 35.1697C287.805 36.1082 287.725 37.1315 287.937 38.1147C288.148 39.0979 288.641 39.9983 289.356 40.7059L306.033 55.2379L333.42 79.096C333.442 79.5454 333.509 79.9914 333.62 80.4275C333.948 81.6909 334.652 82.8249 335.639 83.6791C336.627 84.5334 337.851 85.0674 339.149 85.2106C340.332 85.3488 341.531 85.1507 342.608 84.6391C343.461 84.2402 344.218 83.6611 344.826 82.9419C344.889 82.8676 344.946 82.799 345.003 82.719C345.803 81.6777 346.266 80.4175 346.33 79.1065C346.394 77.7955 346.057 76.4961 345.363 75.3816Z"
            fill="#FFB8B8" />
        <path
            d="M270.854 112.897L270.448 96.4052L270.105 82.719L269.871 73.1414L269.408 54.4721C269.316 53.4725 268.935 52.5212 268.312 51.7344C267.688 50.9475 266.849 50.3591 265.896 50.0409C264.944 49.7228 263.919 49.6887 262.948 49.9428C261.976 50.1969 261.1 50.7283 260.425 51.472C260.267 51.6419 260.123 51.8255 259.997 52.0206C259.293 53.0282 258.976 54.2557 259.105 55.4778L260.123 82.719L260.631 96.4052L261.283 113.863C261.095 114.12 260.925 114.389 260.774 114.669C260.368 115.439 260.122 116.285 260.052 117.153C259.983 118.021 260.09 118.895 260.368 119.72C260.659 120.586 261.13 121.381 261.75 122.052C262.369 122.722 263.125 123.254 263.965 123.612C264.806 123.97 265.712 124.146 266.626 124.128C267.539 124.111 268.439 123.9 269.265 123.509C270.224 123.056 271.057 122.373 271.69 121.522C272.322 120.67 272.736 119.676 272.893 118.627C273.05 117.578 272.946 116.507 272.59 115.507C272.235 114.508 271.639 113.612 270.854 112.897Z"
            fill="#FFB8B8" />
        <path
            d="M310.076 66.1811L306.034 55.2378L299.493 37.5113C299.021 36.2216 298.264 35.0546 297.28 34.097C296.295 33.1394 295.107 32.4157 293.804 31.9797C293.701 31.9454 293.593 31.9111 293.49 31.8825C292.227 31.4996 290.897 31.3943 289.591 31.5739C288.284 31.7534 287.032 32.2135 285.92 32.9226L263.891 46.8889C261.873 48.165 260.431 50.175 259.869 52.4942C259.306 54.8135 259.668 57.2603 260.877 59.3179C263.632 64.0792 266.634 68.6932 269.871 73.1414C272.438 76.6329 277.218 77.0044 278.047 82.7189H294.29L310.733 67.964L310.076 66.1811Z"
            fill="#CCCCCC" />
        <path
            d="M57.84 199.925C65.1567 199.925 71.0882 193.996 71.0882 186.683C71.0882 179.37 65.1567 173.442 57.84 173.442C50.5232 173.442 44.5918 179.37 44.5918 186.683C44.5918 193.996 50.5232 199.925 57.84 199.925Z"
            fill="#A0616A" />
        <path
            d="M90.3643 177.568C90.4948 177.672 90.6214 177.782 90.7439 177.899C91.3525 178.472 91.8331 179.167 92.1542 179.938C92.4753 180.71 92.6297 181.541 92.6071 182.376C92.5846 183.212 92.3858 184.033 92.0236 184.786C91.6614 185.539 91.144 186.207 90.5055 186.747C90.3566 186.872 90.2013 186.989 90.0402 187.097L90.9368 217.353C90.9623 218.343 90.6677 219.316 90.0966 220.125C89.5255 220.935 88.7084 221.54 87.7665 221.848L87.7119 221.86L63.1335 224.476C62.4653 224.547 61.7896 224.485 61.1455 224.294C60.5014 224.103 59.9016 223.785 59.3807 223.361C58.8599 222.937 58.4283 222.413 58.111 221.821C57.7936 221.229 57.5967 220.58 57.5317 219.912C57.4667 219.243 57.5348 218.569 57.7321 217.927C57.9294 217.285 58.252 216.688 58.6813 216.171C59.1106 215.654 59.6381 215.228 60.2332 214.916C60.8284 214.604 61.4795 214.413 62.1489 214.354L79.6694 212.812L82.6994 186.61C82.5012 186.435 82.3156 186.246 82.1439 186.045C81.1939 184.921 80.6957 183.484 80.7459 182.014C80.7962 180.543 81.3913 179.144 82.4158 178.088C83.4404 177.031 84.8211 176.393 86.29 176.297C87.7588 176.201 89.2109 176.654 90.3643 177.568Z"
            fill="#A0616A" />
        <path d="M79.6593 370.972H86.2727L89.4184 345.478H79.6582L79.6593 370.972Z" fill="#A0616A" />
        <path
            d="M77.9731 368.814L90.9963 368.813C92.0862 368.813 93.1659 369.028 94.1728 369.445C95.1798 369.862 96.0947 370.473 96.8654 371.243C97.6361 372.013 98.2474 372.928 98.6645 373.934C99.0816 374.941 99.2962 376.019 99.2962 377.109V377.378L77.9735 377.379L77.9731 368.814Z"
            fill="#2E2836" />
        <path d="M13.9312 361.833L19.6131 365.214L35.3663 344.918L26.98 339.928L13.9312 361.833Z"
            fill="#A0616A" />
        <path
            d="M13.586 359.117L24.7759 365.776C25.7124 366.333 26.5303 367.07 27.1821 367.943C27.8339 368.816 28.3072 369.809 28.5751 370.864C28.843 371.92 28.9002 373.019 28.7434 374.097C28.5866 375.175 28.2189 376.211 27.6613 377.147L27.5233 377.379L9.20215 366.476L13.586 359.117Z"
            fill="#2E2836" />
        <path
            d="M87.8333 361.967H80.4282C79.8286 361.968 79.25 361.747 78.8042 361.346C78.3583 360.945 78.077 360.394 78.0146 359.798L70.5493 289.659C70.5305 289.483 70.4541 289.317 70.3318 289.188C70.2096 289.059 70.0483 288.974 69.8729 288.946C69.6975 288.918 69.5177 288.948 69.3613 289.033C69.2048 289.117 69.0804 289.25 69.0073 289.412L55.5397 319.218L31.696 358.078C31.3874 358.576 30.9096 358.947 30.3501 359.122C29.7906 359.296 29.1868 359.264 28.6493 359.03L19.124 354.841C18.809 354.703 18.5271 354.499 18.297 354.243C18.0669 353.987 17.8938 353.686 17.7892 353.358C17.6846 353.03 17.6509 352.684 17.6903 352.342C17.7297 352.001 17.8413 351.671 18.0178 351.376L39.9366 314.693L46.6589 283.786C44.5447 270.383 53.6085 250.456 53.7004 250.256L53.7453 250.158L78.7118 240.405L78.837 240.558C88.683 272.853 94.6828 307.608 90.2527 359.744C90.1981 360.349 89.92 360.912 89.4727 361.323C89.0253 361.734 88.4408 361.964 87.8333 361.967Z"
            fill="#2E2836" />
        <path
            d="M52.7395 253.424L52.6232 253.18C52.5676 253.063 47.0161 241.36 42.7366 228.852C41.9142 226.433 41.6033 223.87 41.8236 221.325C42.0439 218.78 42.7906 216.308 44.0165 214.067C45.2583 211.802 46.9572 209.82 49.0056 208.245C51.0539 206.671 53.4071 205.539 55.9159 204.921C60.2714 203.878 64.8571 204.433 68.8373 206.486C72.8176 208.538 75.9276 211.952 77.6008 216.104C80.9953 224.589 79.9135 233.645 78.8954 240.767L78.8751 240.909L78.7452 240.971L52.7395 253.424Z"
            fill="#252C47" />
        <path
            d="M73.9027 179.203H52.8662V170.038C57.4835 168.205 62.0017 166.646 64.733 170.038C67.1649 170.038 69.4973 171.004 71.217 172.723C72.9366 174.441 73.9027 176.773 73.9027 179.203Z"
            fill="#2E2836" />
        <path
            d="M51.7015 168.421C39.1255 168.421 35.6055 184.177 35.6055 193.065C35.6055 198.022 37.8484 199.795 41.3729 200.395L42.6176 193.76L45.533 200.68C46.523 200.685 47.5631 200.666 48.6414 200.646L49.6298 198.612L51.834 200.61C60.6622 200.623 67.7974 201.909 67.7974 193.065C67.7974 184.177 64.7103 168.421 51.7015 168.421Z"
            fill="#2E2836" />
        <path
            d="M110.346 378H0.571741C0.420105 378 0.274681 377.94 0.167458 377.832C0.0602363 377.725 0 377.58 0 377.428C0 377.277 0.0602363 377.131 0.167458 377.024C0.274681 376.917 0.420105 376.857 0.571741 376.857H110.346C110.498 376.857 110.643 376.917 110.75 377.024C110.857 377.131 110.918 377.277 110.918 377.428C110.918 377.58 110.857 377.725 110.75 377.832C110.643 377.94 110.498 378 110.346 378Z"
            fill="#252C47" />
        <path
            d="M112.41 189.992H87.8251C86.3851 189.99 85.0045 189.418 83.9862 188.4C82.968 187.382 82.3952 186.003 82.3936 184.563V159.991C82.3952 158.552 82.968 157.172 83.9862 156.154C85.0045 155.136 86.3851 154.564 87.8251 154.562H112.41C113.85 154.564 115.231 155.136 116.249 156.154C117.267 157.172 117.84 158.552 117.841 159.991V184.563C117.84 186.003 117.267 187.382 116.249 188.4C115.231 189.418 113.85 189.99 112.41 189.992Z"
            fill="#CCCCCC" />
        <path
            d="M112.41 189.992H87.8251C86.3851 189.99 85.0045 189.418 83.9862 188.4C82.968 187.382 82.3952 186.003 82.3936 184.563V159.991C82.3952 158.552 82.968 157.172 83.9862 156.154C85.0045 155.136 86.3851 154.564 87.8251 154.562H112.41C113.85 154.564 115.231 155.136 116.249 156.154C117.267 157.172 117.84 158.552 117.841 159.991V184.563C117.84 186.003 117.267 187.382 116.249 188.4C115.231 189.418 113.85 189.99 112.41 189.992ZM87.8251 155.705C86.6882 155.706 85.5983 156.158 84.7944 156.962C83.9905 157.765 83.5383 158.855 83.537 159.991V184.563C83.5383 185.7 83.9905 186.789 84.7944 187.592C85.5983 188.396 86.6882 188.848 87.8251 188.849H112.41C113.547 188.848 114.637 188.396 115.441 187.592C116.245 186.789 116.697 185.7 116.698 184.563V159.991C116.697 158.855 116.245 157.765 115.441 156.962C114.637 156.158 113.547 155.706 112.41 155.705H87.8251Z"
            fill="#3F3D56" />
        <path
            d="M108.122 179.992H92.1132C91.6584 179.991 91.2224 179.81 90.9009 179.489C90.5793 179.168 90.3984 178.732 90.3979 178.277V166.277C90.3984 165.822 90.5793 165.387 90.9009 165.065C91.2224 164.744 91.6584 164.563 92.1132 164.563H96.6198C96.9129 164.561 97.2014 164.636 97.4573 164.779C97.7132 164.922 97.9279 165.128 98.0807 165.378L99.3375 167.42H108.122C108.577 167.42 109.013 167.601 109.334 167.922C109.656 168.244 109.837 168.68 109.837 169.134V178.277C109.837 178.732 109.656 179.168 109.334 179.489C109.013 179.81 108.577 179.991 108.122 179.992Z"
            fill="#252C47" />
        <path
            d="M107.601 186.054C107.681 186.201 107.755 186.351 107.823 186.506C108.161 187.27 108.334 188.097 108.331 188.933C108.327 189.769 108.147 190.594 107.802 191.355C107.457 192.116 106.955 192.796 106.328 193.35C105.702 193.904 104.966 194.319 104.168 194.568C103.982 194.626 103.794 194.673 103.603 194.711L92.6831 222.943C92.3221 223.866 91.673 224.648 90.8323 225.173C89.9915 225.698 89.0038 225.938 88.0158 225.857L87.9609 225.847L64.2928 218.725C63.6493 218.532 63.0505 218.213 62.5311 217.786C62.0117 217.36 61.582 216.835 61.2667 216.242C60.9513 215.649 60.7567 214.999 60.6941 214.33C60.6314 213.662 60.7019 212.987 60.9015 212.346C61.1011 211.704 61.4259 211.109 61.857 210.594C62.2882 210.078 62.8172 209.654 63.4136 209.344C64.0099 209.034 64.6617 208.846 65.3313 208.789C66.001 208.733 66.6752 208.809 67.315 209.015L84.0615 214.388L97.0265 191.415C96.9119 191.177 96.8143 190.93 96.7342 190.678C96.295 189.274 96.3936 187.757 97.0108 186.421C97.6279 185.086 98.7197 184.027 100.074 183.451C101.428 182.874 102.949 182.822 104.34 183.303C105.731 183.784 106.893 184.765 107.601 186.054Z"
            fill="#A0616A" />
    </g>
    <defs>
        <clipPath id="clip0_174_240">
            <rect width="501" height="378" fill="white" />
        </clipPath>
    </defs>
</svg>