<svg width="56" height="56" viewBox="0 0 56 56" fill="none" xmlns="http://www.w3.org/2000/svg">
    <mask id="mask0_1253_4" style="mask-type:alpha" maskUnits="userSpaceOnUse" x="0" y="0"
        width="56" height="56">
        <rect width="56" height="56" fill="#D9D9D9" />
    </mask>
    <g mask="url(#mask0_1253_4)">
        <circle cx="44.5" cy="11.5" r="44.5" fill="url(#paint0_radial_1253_4)" />
        <path
            d="M33.9716 11C32.4176 11 30.9375 11.224 29.5315 11.644C35.5405 13.422 39.8918 18.728 39.8918 25C39.8918 31.272 35.5405 36.578 29.5315 38.356C30.9375 38.776 32.4176 39 33.9716 39C42.1415 39 48.7721 32.728 48.7721 25C48.7721 17.272 42.1415 11 33.9716 11Z"
            fill="#F5F5F5" />
        <path
            d="M35.0404 23.3438C35.1442 23.1049 35.2024 22.8438 35.2024 22.5714C35.2024 21.3884 34.1138 20.4286 32.7721 20.4286C32.2733 20.4286 31.8075 20.5625 31.4227 20.7902C30.7214 19.7187 29.4126 19 27.9113 19C25.6733 19 23.8607 20.5982 23.8607 22.5714C23.8607 22.6317 23.8632 22.692 23.8657 22.7522C22.448 23.192 21.4303 24.3839 21.4303 25.7857C21.4303 27.5603 23.0632 29 25.0759 29H34.3923C36.1822 29 37.6328 27.721 37.6328 26.1429C37.6328 24.7612 36.5189 23.6071 35.0404 23.3438Z"
            fill="white" fill-opacity="0.25" />
        <path
            d="M42.6558 27.2125C42.779 26.9259 42.8482 26.6125 42.8482 26.2857C42.8482 24.8661 41.5554 23.7143 39.9621 23.7143C39.3698 23.7143 38.8167 23.875 38.3597 24.1482C37.5269 22.8625 35.9727 22 34.1899 22C31.5323 22 29.3797 23.9179 29.3797 26.2857C29.3797 26.358 29.3827 26.4304 29.3858 26.5027C27.7022 27.0304 26.4937 28.4607 26.4937 30.1429C26.4937 32.2723 28.4327 34 30.8228 34H41.8861C44.0116 34 45.7343 32.4652 45.7343 30.5714C45.7343 28.9134 44.4115 27.5286 42.6558 27.2125Z"
            fill="white" fill-opacity="0.5" />
    </g>
    <defs>
        <radialGradient id="paint0_radial_1253_4" cx="0" cy="0" r="1" gradientUnits="userSpaceOnUse"
            gradientTransform="translate(38.5 25) rotate(79.0459) scale(31.5753)">
            <stop stop-color="#494C6A" />
            <stop offset="1" stop-color="#292741" />
        </radialGradient>
    </defs>
</svg>