<svg width="33" height="34" viewBox="0 0 33 34" fill="none" xmlns="http://www.w3.org/2000/svg">
<path d="M9.49091 0.0908203H23.2364C28.4727 0.0908203 32.7273 4.39264 32.7273 9.68718V23.5854C32.7273 26.1305 31.7273 28.5714 29.9475 30.371C28.1676 32.1707 25.7535 33.1817 23.2364 33.1817H9.49091C4.25455 33.1817 0 28.8799 0 23.5854V9.68718C0 7.14207 0.999932 4.7012 2.77982 2.90153C4.55971 1.10186 6.97376 0.0908203 9.49091 0.0908203ZM9.16364 3.39991C7.60127 3.39991 6.10289 4.02746 4.99813 5.14449C3.89337 6.26152 3.27273 7.77655 3.27273 9.35627V23.9163C3.27273 27.2088 5.90727 29.8726 9.16364 29.8726H23.5636C25.126 29.8726 26.6244 29.2451 27.7291 28.1281C28.8339 27.011 29.4545 25.496 29.4545 23.9163V9.35627C29.4545 6.06373 26.82 3.39991 23.5636 3.39991H9.16364ZM24.9545 5.88173C25.497 5.88173 26.0173 6.09963 26.4009 6.48749C26.7845 6.87535 27 7.4014 27 7.94991C27 8.49843 26.7845 9.02448 26.4009 9.41234C26.0173 9.8002 25.497 10.0181 24.9545 10.0181C24.4121 10.0181 23.8918 9.8002 23.5082 9.41234C23.1246 9.02448 22.9091 8.49843 22.9091 7.94991C22.9091 7.4014 23.1246 6.87535 23.5082 6.48749C23.8918 6.09963 24.4121 5.88173 24.9545 5.88173ZM16.3636 8.36355C18.5336 8.36355 20.6147 9.23514 22.1491 10.7866C23.6834 12.338 24.5455 14.4422 24.5455 16.6363C24.5455 18.8303 23.6834 20.9345 22.1491 22.486C20.6147 24.0374 18.5336 24.909 16.3636 24.909C14.1937 24.909 12.1126 24.0374 10.5782 22.486C9.04383 20.9345 8.18182 18.8303 8.18182 16.6363C8.18182 14.4422 9.04383 12.338 10.5782 10.7866C12.1126 9.23514 14.1937 8.36355 16.3636 8.36355ZM16.3636 11.6726C15.0617 11.6726 13.813 12.1956 12.8924 13.1265C11.9718 14.0573 11.4545 15.3198 11.4545 16.6363C11.4545 17.9527 11.9718 19.2152 12.8924 20.1461C13.813 21.077 15.0617 21.5999 16.3636 21.5999C17.6656 21.5999 18.9143 21.077 19.8349 20.1461C20.7555 19.2152 21.2727 17.9527 21.2727 16.6363C21.2727 15.3198 20.7555 14.0573 19.8349 13.1265C18.9143 12.1956 17.6656 11.6726 16.3636 11.6726Z" fill="#D81159"/>
</svg>
