<svg width="220" height="64" viewBox="0 0 220 64" fill="inheritColor"
    xmlns="http://www.w3.org/2000/svg">
    <mask id="mask0_174_175" style="mask-type:alpha" maskUnits="userSpaceOnUse" x="0" y="0"
        width="64" height="64">
        <rect width="64" height="63.8579" fill="inheritColor" />
    </mask>
    <g mask="url(#mask0_174_175)">
        <path fill-rule="evenodd" clip-rule="evenodd"
            d="M15.1023 13.2997L13.3018 15.1002C3.87031 24.5317 3.8703 39.8232 13.3018 49.2548L15.1023 51.0553C24.5339 60.4868 39.8254 60.4868 49.2569 51.0553L51.0574 49.2548C60.4889 39.8233 60.489 24.5317 51.0574 15.1002L49.2569 13.2997C39.8254 3.86817 24.5339 3.86816 15.1023 13.2997ZM10.2882 12.0866C-0.807714 23.1825 -0.807731 41.1725 10.2882 52.2684L12.0887 54.0689C23.1846 65.1648 41.1746 65.1649 52.2705 54.0689L54.0711 52.2684C65.167 41.1725 65.167 23.1825 54.0711 12.0866L52.2706 10.2861C41.1746 -0.809852 23.1846 -0.809867 12.0887 10.286L10.2882 12.0866Z"
            fill="inheritColor" />
    </g>
    <path
        d="M51.8201 32.5766L49.294 35.1086C49.0602 35.343 48.6808 35.343 48.447 35.1086L35.5505 22.1819C35.1734 21.8039 34.5282 22.0715 34.5282 22.6058V27.6296C34.5282 27.7886 34.5912 27.941 34.7034 28.0535L45.1429 38.5173C45.3765 38.7515 45.3765 39.1309 45.1429 39.3651L42.6168 41.8971C42.3829 42.1315 42.0036 42.1315 41.7697 41.8971L35.5505 35.6633C35.1734 35.2853 34.5282 35.5528 34.5282 36.0872V49.6996C34.5282 49.8585 34.4652 50.011 34.353 50.1235L32.5895 51.891C32.3557 52.1255 31.9763 52.1255 31.7425 51.891L29.9339 50.0783C29.8217 49.9658 29.7587 49.8134 29.7587 49.6544L29.7587 36.1551C29.7587 35.6208 29.1135 35.3533 28.7364 35.7313L22.585 41.8971C22.3511 42.1315 21.9718 42.1315 21.7379 41.8971L19.2118 39.3651C18.9782 39.1309 18.9782 38.7515 19.2118 38.5173L29.5835 28.1214C29.6957 28.0089 29.7587 27.8565 29.7587 27.6975V22.6738C29.7587 22.1394 29.1135 21.8719 28.7364 22.2499L15.9077 35.1086C15.6739 35.343 15.2945 35.343 15.0607 35.1086L12.5346 32.5766C12.301 32.3424 12.301 31.963 12.5346 31.7288L31.7538 12.4646C31.9876 12.2302 32.367 12.2302 32.6008 12.4646L51.8201 31.7288C52.0537 31.963 52.0537 32.3424 51.8201 32.5766Z"
        fill="inheritColor" />
    <path
        d="M95.3467 23.1875C94.8467 23.1354 94.2008 23.1094 93.4092 23.1094H88.6748V32.1719H84.3936V11.2812C84.6748 11.3021 84.9977 11.3177 85.3623 11.3281L86.5186 11.3594C87.3102 11.3802 88.1331 11.3906 88.9873 11.3906C91.5498 11.3906 93.9977 11.349 96.3311 11.2656C96.2165 12.1823 96.1592 13.4062 96.1592 14.9375C96.1592 15.1042 96.1696 15.2292 96.1904 15.3125L96.1592 15.3594C95.6071 15.2031 94.8363 15.125 93.8467 15.125H88.6748V19.4219H93.2373C94.3831 19.4219 95.0706 19.3906 95.2998 19.3281L95.3467 23.1875Z"
        fill="inheritColor" />
    <path
        d="M114.975 28.4219C115.621 28.4219 116.069 28.3594 116.319 28.2344L116.382 28.25L116.225 32.1719H104.522V11.2812C104.804 11.3021 105.116 11.3177 105.46 11.3281L106.554 11.3594C107.283 11.3802 108.074 11.3906 108.929 11.3906C111.314 11.3906 113.673 11.349 116.007 11.2656C115.892 12.1823 115.835 13.4062 115.835 14.9375C115.835 15.1042 115.845 15.2292 115.866 15.3125L115.835 15.3594C115.293 15.2031 114.522 15.125 113.522 15.125H108.6V19.1094H112.304C113.449 19.1094 114.137 19.0781 114.366 19.0156L114.413 22.875C113.913 22.8229 113.267 22.7969 112.475 22.7969H108.6V28.4219H114.975Z"
        fill="inheritColor" />
    <path
        d="M134.026 11C135.974 11 137.635 11.3385 139.01 12.0156V16.7969L138.979 16.8281C138.396 15.9323 137.167 15.3385 135.292 15.0469C134.74 14.9531 134.042 14.9062 133.198 14.9062C132.354 14.9062 131.526 15.0677 130.714 15.3906C129.901 15.7031 129.234 16.151 128.714 16.7344C127.703 17.8698 127.198 19.4896 127.198 21.5938C127.198 24.0417 127.839 25.8646 129.12 27.0625C130.182 28.0625 131.589 28.5625 133.339 28.5625C135.318 28.5625 136.922 28.1406 138.151 27.2969C138.599 26.9948 138.979 26.6198 139.292 26.1719L139.339 26.2031V30.5781C137.745 31.901 135.599 32.5625 132.901 32.5625C129.724 32.5625 127.234 31.5521 125.432 29.5312C123.703 27.6042 122.839 25.0521 122.839 21.875C122.839 18.5104 123.786 15.8594 125.682 13.9219C127.599 11.974 130.38 11 134.026 11Z"
        fill="inheritColor" />
    <path
        d="M148.952 32.2969C148.056 32.2135 147.009 32.1719 145.811 32.1719H144.577L151.374 13.125C151.676 12.2708 151.827 11.776 151.827 11.6406C151.827 11.4948 151.821 11.4062 151.811 11.375L151.827 11.3438C152.504 11.375 153.223 11.3906 153.983 11.3906C154.608 11.3906 155.358 11.3802 156.233 11.3594L156.249 11.3906C156.228 11.4323 156.217 11.4896 156.217 11.5625C156.217 11.7604 156.374 12.2865 156.686 13.1406L163.624 32.2188C163.415 32.2083 163.17 32.2031 162.889 32.2031C162.889 32.2031 162.618 32.1927 162.077 32.1719C161.816 32.1719 161.582 32.1719 161.374 32.1719H158.952L157.483 27.6719H150.42L148.952 32.2969ZM156.264 23.9219L153.905 16.6562L151.608 23.9219H156.264Z"
        fill="inheritColor" />
    <path
        d="M182.862 12.5469L182.565 17.1406L182.455 17.1719C181.685 16.0156 180.372 15.2656 178.518 14.9219C177.935 14.8073 177.372 14.75 176.83 14.75C176.299 14.75 175.841 14.7969 175.455 14.8906C175.08 14.9844 174.758 15.1198 174.487 15.2969C173.914 15.6719 173.627 16.1615 173.627 16.7656C173.627 17.5573 173.877 18.151 174.377 18.5469C175.002 19.026 176.039 19.3646 177.487 19.5625C178.935 19.75 180.096 20.0104 180.971 20.3438C181.846 20.6771 182.565 21.099 183.127 21.6094C184.19 22.5677 184.721 23.9219 184.721 25.6719C184.721 27.9635 183.856 29.7292 182.127 30.9688C180.648 32.0312 178.784 32.5625 176.534 32.5625C174.721 32.5625 172.929 32.2188 171.159 31.5312C170.575 31.3021 170.065 31.0365 169.627 30.7344L169.799 25.5156L169.862 25.4688C171.153 27.6979 173.273 28.8125 176.221 28.8125C178.315 28.8125 179.7 28.3073 180.377 27.2969C180.606 26.9531 180.721 26.5729 180.721 26.1562C180.721 25.7292 180.653 25.3802 180.518 25.1094C180.383 24.8281 180.159 24.5885 179.846 24.3906C179.242 23.9948 178.226 23.7292 176.799 23.5938C175.372 23.4583 174.205 23.2031 173.299 22.8281C172.393 22.4531 171.669 21.9896 171.127 21.4375C170.148 20.4375 169.659 19.0417 169.659 17.25C169.659 15.3958 170.31 13.8958 171.612 12.75C172.935 11.5833 174.716 11 176.955 11C179.205 11 181.174 11.5156 182.862 12.5469Z"
        fill="inheritColor" />
    <path
        d="M200.631 32.2656C200.131 32.2031 198.845 32.1719 196.772 32.1719H196.272V14.8906H193.178C192.261 14.8906 191.72 14.9375 191.553 15.0312C191.386 15.125 191.256 15.2083 191.162 15.2812L191.115 15.2656V11.2656L191.162 11.2188C191.506 11.3333 192.433 11.3906 193.944 11.3906H203.74C204.657 11.3906 205.199 11.3438 205.365 11.25C205.532 11.1562 205.662 11.0729 205.756 11L205.803 11.0156V15.0156L205.756 15.0625C205.412 14.9479 204.485 14.8906 202.975 14.8906H200.631V32.2656Z"
        fill="inheritColor" />
    <path
        d="M213.807 11.3281C214.848 11.3698 215.479 11.3906 215.697 11.3906H216.822C217.374 11.3906 217.817 11.349 218.15 11.2656L218.135 32.1719H213.807V11.3281Z"
        fill="inheritColor" />
    <path
        d="M88.1631 53.2129C87.9443 53.1855 87.3815 53.1719 86.4746 53.1719H86.2559V45.6113H84.9023C84.5013 45.6113 84.2643 45.6318 84.1914 45.6729C84.1185 45.7139 84.0615 45.7503 84.0205 45.7822L84 45.7754V44.0254L84.0205 44.0049C84.1709 44.055 84.5765 44.0801 85.2373 44.0801H89.5234C89.9245 44.0801 90.1615 44.0596 90.2344 44.0186C90.3073 43.9775 90.3643 43.9411 90.4053 43.9092L90.4258 43.916V45.666L90.4053 45.6865C90.2549 45.6364 89.8493 45.6113 89.1885 45.6113H88.1631V53.2129Z"
        fill="#E1EFF6" fill-opacity="0.75" />
    <path
        d="M102.629 51.5312C102.911 51.5312 103.107 51.5039 103.217 51.4492L103.244 51.4561L103.176 53.1719H98.0555V44.0322C98.1786 44.0413 98.3153 44.0482 98.4657 44.0527L98.9442 44.0664C99.2632 44.0755 99.6095 44.0801 99.9832 44.0801C101.027 44.0801 102.059 44.0618 103.08 44.0254C103.03 44.4264 103.005 44.9619 103.005 45.6318C103.005 45.7048 103.009 45.7594 103.018 45.7959L103.005 45.8164C102.768 45.748 102.431 45.7139 101.993 45.7139H99.8397V47.457H101.46C101.961 47.457 102.262 47.4434 102.362 47.416L102.383 49.1045C102.164 49.0817 101.881 49.0703 101.535 49.0703H99.8397V51.5312H102.629Z"
        fill="#E1EFF6" fill-opacity="0.75" />
    <path
        d="M115.303 43.9092C116.156 43.9092 116.882 44.0573 117.484 44.3535V46.4453L117.47 46.459C117.215 46.0671 116.677 45.8073 115.857 45.6797C115.616 45.6387 115.31 45.6182 114.941 45.6182C114.572 45.6182 114.21 45.6888 113.854 45.8301C113.499 45.9668 113.207 46.1628 112.979 46.418C112.537 46.9147 112.316 47.6234 112.316 48.5439C112.316 49.6149 112.596 50.4124 113.157 50.9365C113.622 51.374 114.237 51.5928 115.003 51.5928C115.869 51.5928 116.57 51.4082 117.108 51.0391C117.304 50.9069 117.47 50.7428 117.607 50.5469L117.628 50.5605V52.4746C116.93 53.0534 115.992 53.3428 114.811 53.3428C113.421 53.3428 112.332 52.9007 111.544 52.0166C110.787 51.1735 110.409 50.057 110.409 48.667C110.409 47.195 110.824 46.0352 111.653 45.1875C112.492 44.3353 113.708 43.9092 115.303 43.9092Z"
        fill="#E1EFF6" fill-opacity="0.75" />
    <path
        d="M125.572 53.1719C125.599 53.0169 125.613 52.8483 125.613 52.666V44.0801H126.98L130.603 49.7812V44.5449C130.603 44.2943 130.58 44.1393 130.535 44.0801H132.38C132.358 44.2624 132.346 44.4629 132.346 44.6816V53.1719H130.924L127.356 47.6963V53.1719H125.572Z"
        fill="#E1EFF6" fill-opacity="0.75" />
    <path
        d="M141.712 52.0918C141.298 51.6953 140.969 51.2191 140.728 50.6631C140.491 50.1071 140.372 49.4987 140.372 48.8379C140.372 48.1725 140.484 47.5436 140.707 46.9512C140.931 46.3587 141.25 45.8369 141.664 45.3857C142.079 44.9346 142.58 44.5768 143.168 44.3125C143.756 44.0436 144.415 43.9092 145.144 43.9092C146.402 43.9092 147.461 44.3057 148.323 45.0986C149.243 45.9463 149.703 47.0902 149.703 48.5303C149.703 49.9248 149.23 51.0846 148.282 52.0098C147.698 52.5794 147.003 52.9714 146.197 53.1855C145.8 53.2904 145.335 53.3428 144.802 53.3428C144.273 53.3428 143.729 53.2334 143.168 53.0146C142.612 52.7959 142.127 52.4883 141.712 52.0918ZM142.273 48.7422C142.273 49.166 142.343 49.5557 142.485 49.9111C142.626 50.2666 142.822 50.5719 143.073 50.8271C143.606 51.3649 144.292 51.6338 145.13 51.6338C145.928 51.6338 146.568 51.3763 147.051 50.8613C147.543 50.3281 147.789 49.6012 147.789 48.6807C147.789 47.8148 147.555 47.0924 147.085 46.5137C146.579 45.8939 145.887 45.584 145.007 45.584C144.155 45.584 143.478 45.8984 142.977 46.5273C142.508 47.1152 142.273 47.8535 142.273 48.7422Z"
        fill="#E1EFF6" fill-opacity="0.75" />
    <path
        d="M158.96 53.1719C158.29 53.1719 157.846 53.1855 157.627 53.2129V44.0391C157.737 44.0664 157.962 44.0801 158.304 44.0801C158.65 44.0801 159.051 44.071 159.507 44.0527V51.5312H160.922C161.332 51.5312 161.66 51.5176 161.906 51.4902C161.875 52.5566 161.859 53.1104 161.859 53.1514V53.2197C161.412 53.1878 160.662 53.1719 159.61 53.1719H158.96Z"
        fill="#E1EFF6" fill-opacity="0.75" />
    <path
        d="M170.384 52.0918C169.969 51.6953 169.641 51.2191 169.399 50.6631C169.162 50.1071 169.044 49.4987 169.044 48.8379C169.044 48.1725 169.156 47.5436 169.379 46.9512C169.602 46.3587 169.921 45.8369 170.336 45.3857C170.751 44.9346 171.252 44.5768 171.84 44.3125C172.428 44.0436 173.086 43.9092 173.815 43.9092C175.073 43.9092 176.133 44.3057 176.994 45.0986C177.915 45.9463 178.375 47.0902 178.375 48.5303C178.375 49.9248 177.901 51.0846 176.953 52.0098C176.37 52.5794 175.675 52.9714 174.868 53.1855C174.472 53.2904 174.007 53.3428 173.474 53.3428C172.945 53.3428 172.4 53.2334 171.84 53.0146C171.284 52.7959 170.799 52.4883 170.384 52.0918ZM170.944 48.7422C170.944 49.166 171.015 49.5557 171.156 49.9111C171.298 50.2666 171.494 50.5719 171.744 50.8271C172.277 51.3649 172.963 51.6338 173.802 51.6338C174.599 51.6338 175.24 51.3763 175.723 50.8613C176.215 50.3281 176.461 49.6012 176.461 48.6807C176.461 47.8148 176.226 47.0924 175.757 46.5137C175.251 45.8939 174.558 45.584 173.679 45.584C172.827 45.584 172.15 45.8984 171.648 46.5273C171.179 47.1152 170.944 47.8535 170.944 48.7422Z"
        fill="#E1EFF6" fill-opacity="0.75" />
    <path
        d="M193.791 47.6895C193.704 47.8444 193.661 48.2158 193.661 48.8037V50.9229C193.661 51.5654 193.328 52.1237 192.663 52.5977C191.975 53.0944 191.132 53.3428 190.134 53.3428C188.748 53.3428 187.643 52.9076 186.818 52.0371C186.021 51.2077 185.622 50.1504 185.622 48.8652C185.622 47.498 186.028 46.3587 186.839 45.4473C187.746 44.4219 188.994 43.9092 190.585 43.9092C191.647 43.9092 192.488 44.1143 193.107 44.5244L192.998 46.541L192.943 46.5547C192.784 46.2767 192.469 46.0488 192 45.8711C191.553 45.7025 191.084 45.6182 190.592 45.6182C190.104 45.6182 189.676 45.6956 189.307 45.8506C188.942 46.0055 188.632 46.2266 188.377 46.5137C187.839 47.1016 187.57 47.8786 187.57 48.8447C187.57 49.6878 187.807 50.3646 188.281 50.875C188.755 51.3809 189.366 51.6338 190.113 51.6338C190.938 51.6338 191.494 51.4196 191.781 50.9912C191.872 50.8545 191.918 50.6995 191.918 50.5264V49.3916H191.036C190.562 49.3916 190.305 49.4326 190.264 49.5146L190.243 49.5078L190.182 47.7236C190.309 47.7601 190.826 47.7783 191.733 47.7783H192.54C193.041 47.7783 193.451 47.7441 193.77 47.6758L193.791 47.6895Z"
        fill="#E1EFF6" fill-opacity="0.75" />
    <path
        d="M201.995 44.0527C202.451 44.071 202.726 44.0801 202.822 44.0801H203.314C203.556 44.0801 203.749 44.0618 203.895 44.0254L203.888 53.1719H201.995V44.0527Z"
        fill="#E1EFF6" fill-opacity="0.75" />
    <path
        d="M213.282 53.2266C212.89 53.1901 212.432 53.1719 211.908 53.1719H211.368L214.341 44.8389C214.474 44.4652 214.54 44.2487 214.54 44.1895C214.54 44.1257 214.537 44.0869 214.533 44.0732L214.54 44.0596C214.836 44.0732 215.15 44.0801 215.483 44.0801C215.756 44.0801 216.085 44.0755 216.467 44.0664L216.474 44.0801C216.465 44.0983 216.461 44.1234 216.461 44.1553C216.461 44.2419 216.529 44.472 216.666 44.8457L219.701 53.1924C219.61 53.1878 219.503 53.1855 219.379 53.1855C219.379 53.1855 219.261 53.181 219.024 53.1719C218.91 53.1719 218.808 53.1719 218.716 53.1719H217.657L217.014 51.2031H213.924L213.282 53.2266ZM216.481 49.5625L215.449 46.3838L214.444 49.5625H216.481Z"
        fill="#E1EFF6" fill-opacity="0.75" />
</svg>