<svg width="273" height="87" viewBox="0 0 273 87" fill="none" xmlns="http://www.w3.org/2000/svg">
<mask id="mask0_325_90" style="mask-type:alpha" maskUnits="userSpaceOnUse" x="0" y="0" width="88" height="87">
<path d="M0 0H87.1936V87H0V0Z" fill="#D81159"/>
</mask>
<g mask="url(#mask0_325_90)">
<path fill-rule="evenodd" clip-rule="evenodd" d="M37.9155 24.9527L36.1143 26.7539C26.6788 36.1894 26.6788 51.4873 36.1143 60.9228L37.9155 62.7241C47.351 72.1596 62.6489 72.1596 72.0844 62.7241L73.8857 60.9228C83.3212 51.4874 83.3212 36.1894 73.8857 26.7539L72.0844 24.9527C62.6489 15.5172 47.351 15.5172 37.9155 24.9527ZM33.0994 23.739C21.9988 34.8396 21.9988 52.8372 33.0993 63.9377L34.9006 65.739C46.0012 76.8396 63.9987 76.8396 75.0993 65.739L76.9006 63.9377C88.0012 52.8372 88.0012 34.8396 76.9006 23.739L75.0993 21.9378C63.9988 10.8372 46.0012 10.8372 34.9006 21.9378L33.0994 23.739Z" fill="#DDA200"/>
</g>
<path d="M74.8232 44.401L72.2739 46.9471C72.0379 47.1828 71.6551 47.1828 71.419 46.9471L58.4041 33.9483C58.0235 33.5682 57.3724 33.8372 57.3724 34.3746V39.4264C57.3724 39.5862 57.436 39.7396 57.5493 39.8526L68.0846 50.3749C68.3204 50.6103 68.3204 50.9919 68.0846 51.2274L65.5353 53.7735C65.2993 54.0092 64.9165 54.0092 64.6805 53.7735L58.4041 47.5049C58.0235 47.1248 57.3724 47.3938 57.3724 47.9312V61.6195C57.3724 61.7794 57.3088 61.9327 57.1956 62.0458L55.416 63.8232C55.1799 64.0589 54.7971 64.0589 54.5611 63.8232L52.736 62.0003C52.6228 61.8873 52.5592 61.7339 52.5592 61.5741L52.5591 47.9995C52.5591 47.4622 51.908 47.1932 51.5274 47.5733L45.3195 53.7735C45.0835 54.0092 44.7007 54.0092 44.4647 53.7735L41.9154 51.2274C41.6796 50.9919 41.6796 50.6103 41.9154 50.3749L52.3823 39.9209C52.4955 39.8078 52.5591 39.6545 52.5591 39.4947V34.4429C52.5591 33.9056 51.908 33.6366 51.5274 34.0167L38.581 46.9471C38.345 47.1828 37.9621 47.1828 37.7261 46.9471L35.1768 44.401C34.9411 44.1655 34.9411 43.784 35.1768 43.5485L54.5725 24.1768C54.8085 23.9411 55.1914 23.9411 55.4274 24.1768L74.8232 43.5485C75.0589 43.784 75.0589 44.1655 74.8232 44.401Z" fill="#DDA200"/>
<path d="M114.378 37.8232C114.034 37.7874 113.59 37.7695 113.046 37.7695H109.791V44H106.848V29.6377C107.041 29.652 107.263 29.6628 107.514 29.6699L108.309 29.6914C108.853 29.7057 109.419 29.7129 110.006 29.7129C111.768 29.7129 113.451 29.6842 115.055 29.627C114.976 30.2572 114.937 31.0986 114.937 32.1514C114.937 32.266 114.944 32.3519 114.958 32.4092L114.937 32.4414C114.557 32.334 114.027 32.2803 113.347 32.2803H109.791V35.2344H112.928C113.715 35.2344 114.188 35.2129 114.346 35.1699L114.378 37.8232Z" fill="#DDA200"/>
<path d="M126.113 41.4219C126.557 41.4219 126.865 41.3789 127.037 41.293L127.079 41.3037L126.972 44H118.926V29.6377C119.12 29.652 119.334 29.6628 119.571 29.6699L120.323 29.6914C120.824 29.7057 121.368 29.7129 121.955 29.7129C123.595 29.7129 125.218 29.6842 126.822 29.627C126.743 30.2572 126.704 31.0986 126.704 32.1514C126.704 32.266 126.711 32.3519 126.725 32.4092L126.704 32.4414C126.331 32.334 125.801 32.2803 125.114 32.2803H121.73V35.0195H124.276C125.064 35.0195 125.536 34.998 125.694 34.9551L125.726 37.6084C125.382 37.5726 124.938 37.5547 124.394 37.5547H121.73V41.4219H126.113Z" fill="#DDA200"/>
<path d="M133.142 44C132.09 44 131.391 44.0215 131.048 44.0645V29.6484C131.22 29.6914 131.574 29.7129 132.111 29.7129C132.655 29.7129 133.286 29.6986 134.002 29.6699V41.4219H136.225C136.87 41.4219 137.386 41.4004 137.772 41.3574C137.722 43.0332 137.697 43.9033 137.697 43.9678V44.0752C136.995 44.0251 135.817 44 134.163 44H133.142Z" fill="#DDA200"/>
<path d="M141.676 29.6699C142.392 29.6986 142.825 29.7129 142.976 29.7129H143.749C144.129 29.7129 144.433 29.6842 144.662 29.627L144.652 44H141.676V29.6699Z" fill="#DDA200"/>
<path d="M149.587 29.6377C150.582 29.5088 151.602 29.4443 152.648 29.4443C154.596 29.4443 156.075 29.9027 157.085 30.8193C158.101 31.7288 158.61 33.0931 158.61 34.9121C158.61 36.5378 158.055 37.8232 156.945 38.7686C155.907 39.6566 154.571 40.1006 152.938 40.1006C152.752 40.1006 152.548 40.0898 152.326 40.0684V44H149.587V29.6377ZM152.97 32.0332C152.755 32.0332 152.541 32.0404 152.326 32.0547V37.7051C152.555 37.7337 152.834 37.748 153.164 37.748C153.493 37.748 153.837 37.68 154.195 37.5439C154.553 37.4007 154.854 37.2038 155.097 36.9531C155.606 36.4303 155.86 35.7428 155.86 34.8906C155.86 32.9857 154.897 32.0332 152.97 32.0332Z" fill="#DDA200"/>
<path d="M169.099 41.4219C169.543 41.4219 169.851 41.3789 170.022 41.293L170.065 41.3037L169.958 44H161.912V29.6377C162.105 29.652 162.32 29.6628 162.557 29.6699L163.309 29.6914C163.81 29.7057 164.354 29.7129 164.941 29.7129C166.581 29.7129 168.203 29.6842 169.808 29.627C169.729 30.2572 169.689 31.0986 169.689 32.1514C169.689 32.266 169.697 32.3519 169.711 32.4092L169.689 32.4414C169.317 32.334 168.787 32.2803 168.1 32.2803H164.716V35.0195H167.262C168.049 35.0195 168.522 34.998 168.68 34.9551L168.712 37.6084C168.368 37.5726 167.924 37.5547 167.38 37.5547H164.716V41.4219H169.099Z" fill="#DDA200"/>
<path d="M183.48 44.0859C182.864 44.0286 182.145 44 181.321 44H180.472L185.145 30.9053C185.353 30.318 185.457 29.9779 185.457 29.8848C185.457 29.7845 185.453 29.7236 185.446 29.7021L185.457 29.6807C185.922 29.7021 186.416 29.7129 186.939 29.7129C187.369 29.7129 187.885 29.7057 188.486 29.6914L188.497 29.7129C188.483 29.7415 188.475 29.7809 188.475 29.8311C188.475 29.9671 188.583 30.3288 188.798 30.916L193.567 44.0322C193.424 44.0251 193.256 44.0215 193.062 44.0215C193.062 44.0215 192.876 44.0143 192.504 44C192.325 44 192.164 44 192.02 44H190.355L189.346 40.9062H184.49L183.48 44.0859ZM188.508 38.3281L186.886 33.333L185.306 38.3281H188.508Z" fill="#DDA200"/>
<path d="M198.502 44C197.449 44 196.751 44.0215 196.407 44.0645V29.6484C196.579 29.6914 196.934 29.7129 197.471 29.7129C198.015 29.7129 198.645 29.6986 199.362 29.6699V41.4219H201.585C202.23 41.4219 202.745 41.4004 203.132 41.3574C203.082 43.0332 203.057 43.9033 203.057 43.9678V44.0752C202.355 44.0251 201.177 44 199.523 44H198.502Z" fill="#DDA200"/>
<path d="M213.889 41.4219C214.333 41.4219 214.641 41.3789 214.813 41.293L214.856 41.3037L214.749 44H206.703V29.6377C206.896 29.652 207.111 29.6628 207.347 29.6699L208.099 29.6914C208.601 29.7057 209.145 29.7129 209.732 29.7129C211.372 29.7129 212.994 29.6842 214.598 29.627C214.519 30.2572 214.48 31.0986 214.48 32.1514C214.48 32.266 214.487 32.3519 214.502 32.4092L214.48 32.4414C214.108 32.334 213.578 32.2803 212.89 32.2803H209.506V35.0195H212.052C212.84 35.0195 213.313 34.998 213.47 34.9551L213.503 37.6084C213.159 37.5726 212.715 37.5547 212.171 37.5547H209.506V41.4219H213.889Z" fill="#DDA200"/>
<path d="M218.921 44C218.964 43.7565 218.985 43.4915 218.985 43.2051V29.7129H221.134L226.827 38.6719V30.4434C226.827 30.0495 226.791 29.806 226.72 29.7129H229.62C229.584 29.9993 229.566 30.3145 229.566 30.6582V44H227.332L221.725 35.3955V44H218.921Z" fill="#DDA200"/>
<path d="M240.936 29.4443C242.275 29.4443 243.417 29.6771 244.363 30.1426V33.4297L244.341 33.4512C243.94 32.8353 243.095 32.4271 241.806 32.2266C241.427 32.1621 240.947 32.1299 240.367 32.1299C239.787 32.1299 239.217 32.2409 238.659 32.4629C238.1 32.6777 237.642 32.9857 237.284 33.3867C236.589 34.1673 236.242 35.2809 236.242 36.7275C236.242 38.4105 236.682 39.6637 237.563 40.4873C238.293 41.1748 239.26 41.5186 240.463 41.5186C241.824 41.5186 242.927 41.2285 243.772 40.6484C244.08 40.4408 244.341 40.1829 244.556 39.875L244.588 39.8965V42.9043C243.493 43.8138 242.017 44.2686 240.163 44.2686C237.978 44.2686 236.267 43.5739 235.028 42.1846C233.839 40.8597 233.245 39.1051 233.245 36.9209C233.245 34.6077 233.896 32.7852 235.2 31.4531C236.517 30.1139 238.429 29.4443 240.936 29.4443Z" fill="#DDA200"/>
<path d="M249.437 44.0859C248.821 44.0286 248.102 44 247.278 44H246.429L251.102 30.9053C251.31 30.318 251.414 29.9779 251.414 29.8848C251.414 29.7845 251.41 29.7236 251.403 29.7021L251.414 29.6807C251.879 29.7021 252.373 29.7129 252.896 29.7129C253.326 29.7129 253.842 29.7057 254.443 29.6914L254.454 29.7129C254.44 29.7415 254.432 29.7809 254.432 29.8311C254.432 29.9671 254.54 30.3288 254.755 30.916L259.524 44.0322C259.381 44.0251 259.213 44.0215 259.019 44.0215C259.019 44.0215 258.833 44.0143 258.461 44C258.282 44 258.121 44 257.977 44H256.312L255.303 40.9062H250.447L249.437 44.0859ZM254.465 38.3281L252.843 33.333L251.263 38.3281H254.465Z" fill="#DDA200"/>
<path d="M266.984 38.4463C266.769 38.4606 266.54 38.4678 266.296 38.4678C266.053 38.4678 265.691 38.4499 265.211 38.4141V44H262.364V29.6377C263.367 29.5088 264.599 29.4443 266.06 29.4443C268.051 29.4443 269.533 29.8132 270.507 30.5508C271.488 31.2812 271.979 32.4128 271.979 33.9453C271.979 35.1341 271.531 36.151 270.636 36.9961C270.342 37.2682 270.006 37.5046 269.626 37.7051L271.818 42.3242C272.247 43.2767 272.577 43.8424 272.806 44.0215L272.752 44.0752C272.057 43.9606 270.965 43.9642 269.476 44.0859L266.984 38.4463ZM266.264 31.9795C265.899 31.9795 265.548 31.9974 265.211 32.0332V36.1367C265.562 36.1868 265.974 36.2119 266.446 36.2119C266.919 36.2119 267.317 36.1725 267.639 36.0938C267.961 36.0078 268.24 35.8789 268.477 35.707C268.985 35.3275 269.239 34.7581 269.239 33.999C269.239 33.2399 268.974 32.7064 268.445 32.3984C267.95 32.1191 267.224 31.9795 266.264 31.9795Z" fill="#DDA200"/>
<path d="M107.422 58.1221C106.895 58.1221 106.398 58.0798 105.933 57.9951V51.4619C106.362 51.4098 106.86 51.3838 107.427 51.3838C107.996 51.3838 108.511 51.4619 108.97 51.6182C109.432 51.7712 109.818 51.9909 110.127 52.2773C110.752 52.8503 111.064 53.6527 111.064 54.6846C111.064 55.8402 110.716 56.7174 110.02 57.3164C109.395 57.8535 108.529 58.1221 107.422 58.1221ZM107.202 56.9307C107.414 56.9697 107.625 56.9893 107.837 56.9893C108.049 56.9893 108.276 56.9486 108.521 56.8672C108.765 56.7826 108.976 56.6523 109.155 56.4766C109.539 56.1055 109.731 55.5651 109.731 54.8555C109.731 53.6901 109.307 52.974 108.457 52.707C108.177 52.6191 107.853 52.5752 107.485 52.5752H107.354C107.305 52.5752 107.254 52.5768 107.202 52.5801V56.9307Z" fill="#B0BBC7"/>
<path d="M116.267 56.8281C116.468 56.8281 116.608 56.8086 116.687 56.7695L116.706 56.7744L116.657 58H113V51.4717C113.088 51.4782 113.186 51.4831 113.293 51.4863L113.635 51.4961C113.863 51.5026 114.11 51.5059 114.377 51.5059C115.122 51.5059 115.86 51.4928 116.589 51.4668C116.553 51.7533 116.535 52.1357 116.535 52.6143C116.535 52.6663 116.538 52.7054 116.545 52.7314L116.535 52.7461C116.366 52.6973 116.125 52.6729 115.812 52.6729H114.274V53.918H115.432C115.79 53.918 116.005 53.9082 116.076 53.8887L116.091 55.0947C115.935 55.0785 115.733 55.0703 115.485 55.0703H114.274V56.8281H116.267Z" fill="#B0BBC7"/>
<path d="M122.431 51.8672L122.338 53.3027L122.304 53.3125C122.063 52.9512 121.653 52.7168 121.073 52.6094C120.891 52.5736 120.715 52.5557 120.546 52.5557C120.38 52.5557 120.237 52.5703 120.116 52.5996C119.999 52.6289 119.898 52.6712 119.813 52.7266C119.634 52.8438 119.545 52.9967 119.545 53.1855C119.545 53.4329 119.623 53.6185 119.779 53.7422C119.975 53.8919 120.299 53.9977 120.751 54.0596C121.203 54.1182 121.566 54.1995 121.84 54.3037C122.113 54.4079 122.338 54.5397 122.514 54.6992C122.846 54.9987 123.012 55.4219 123.012 55.9688C123.012 56.6849 122.742 57.2367 122.201 57.624C121.739 57.9561 121.156 58.1221 120.453 58.1221C119.887 58.1221 119.327 58.0146 118.773 57.7998C118.591 57.7282 118.432 57.6452 118.295 57.5508L118.349 55.9199L118.368 55.9053C118.772 56.6019 119.434 56.9502 120.355 56.9502C121.01 56.9502 121.443 56.7923 121.654 56.4766C121.726 56.3691 121.762 56.2503 121.762 56.1201C121.762 55.9867 121.741 55.8776 121.698 55.793C121.656 55.7051 121.586 55.6302 121.488 55.5684C121.299 55.4447 120.982 55.3617 120.536 55.3193C120.09 55.277 119.726 55.1973 119.442 55.0801C119.159 54.9629 118.933 54.818 118.764 54.6455C118.458 54.333 118.305 53.8968 118.305 53.3369C118.305 52.7575 118.508 52.2887 118.915 51.9307C119.328 51.5661 119.885 51.3838 120.585 51.3838C121.288 51.3838 121.903 51.5449 122.431 51.8672Z" fill="#B0BBC7"/>
<path d="M128.106 56.8281C128.308 56.8281 128.448 56.8086 128.526 56.7695L128.546 56.7744L128.497 58H124.84V51.4717C124.928 51.4782 125.025 51.4831 125.133 51.4863L125.475 51.4961C125.702 51.5026 125.95 51.5059 126.217 51.5059C126.962 51.5059 127.7 51.4928 128.429 51.4668C128.393 51.7533 128.375 52.1357 128.375 52.6143C128.375 52.6663 128.378 52.7054 128.385 52.7314L128.375 52.7461C128.206 52.6973 127.965 52.6729 127.652 52.6729H126.114V53.918H127.271C127.63 53.918 127.844 53.9082 127.916 53.8887L127.931 55.0947C127.774 55.0785 127.573 55.0703 127.325 55.0703H126.114V56.8281H128.106Z" fill="#B0BBC7"/>
<path d="M130.394 58C130.413 57.8893 130.423 57.7689 130.423 57.6387V51.5059H131.399L133.987 55.5781V51.8379C133.987 51.6589 133.971 51.5482 133.938 51.5059H135.257C135.241 51.6361 135.232 51.7793 135.232 51.9355V58H134.217L131.668 54.0889V58H130.394Z" fill="#B0BBC7"/>
<path d="M140.269 58.0195C140.164 58.0065 139.993 58 139.756 58H139.219C139.131 58 139.051 58.0033 138.979 58.0098L138.975 58C138.988 57.9772 138.994 57.9512 138.994 57.9219C138.994 57.8926 138.991 57.8617 138.984 57.8291C138.981 57.7965 138.968 57.738 138.945 57.6533C138.923 57.5687 138.887 57.4466 138.838 57.2871L138.633 56.6328L136.816 51.4863C137.018 51.4993 137.275 51.5059 137.588 51.5059C137.9 51.5059 138.101 51.4928 138.188 51.4668L139.658 55.9053L140.947 51.4863C141.143 51.4993 141.383 51.5059 141.67 51.5059C142.061 51.5059 142.288 51.4928 142.354 51.4668L140.571 56.6182C140.571 56.6182 140.514 56.8086 140.4 57.1895C140.306 57.515 140.259 57.7266 140.259 57.8242C140.259 57.9186 140.265 57.9788 140.278 58.0049L140.269 58.0195Z" fill="#B0BBC7"/>
<path d="M144.353 57.2285C144.056 56.9453 143.822 56.6051 143.649 56.208C143.48 55.8109 143.396 55.3763 143.396 54.9043C143.396 54.429 143.475 53.9798 143.635 53.5566C143.794 53.1335 144.022 52.7607 144.318 52.4385C144.615 52.1162 144.973 51.8607 145.393 51.6719C145.812 51.4798 146.283 51.3838 146.804 51.3838C147.702 51.3838 148.459 51.667 149.074 52.2334C149.732 52.8389 150.061 53.6559 150.061 54.6846C150.061 55.6807 149.722 56.5091 149.045 57.1699C148.628 57.5768 148.132 57.8568 147.556 58.0098C147.272 58.0846 146.94 58.1221 146.56 58.1221C146.182 58.1221 145.793 58.0439 145.393 57.8877C144.995 57.7314 144.649 57.5117 144.353 57.2285ZM144.753 54.8359C144.753 55.1387 144.803 55.417 144.904 55.6709C145.005 55.9248 145.145 56.1429 145.324 56.3252C145.705 56.7093 146.195 56.9014 146.794 56.9014C147.364 56.9014 147.821 56.7174 148.166 56.3496C148.518 55.9688 148.693 55.4495 148.693 54.792C148.693 54.1735 148.526 53.6576 148.19 53.2441C147.829 52.8014 147.334 52.5801 146.706 52.5801C146.097 52.5801 145.614 52.8047 145.256 53.2539C144.921 53.6738 144.753 54.2012 144.753 54.8359Z" fill="#B0BBC7"/>
<path d="M152.772 58C152.294 58 151.977 58.0098 151.82 58.0293V51.4766C151.898 51.4961 152.06 51.5059 152.304 51.5059C152.551 51.5059 152.838 51.4993 153.163 51.4863V56.8281H154.174C154.467 56.8281 154.701 56.8184 154.877 56.7988C154.854 57.5605 154.843 57.9561 154.843 57.9854V58.0342C154.524 58.0114 153.988 58 153.236 58H152.772Z" fill="#B0BBC7"/>
<path d="M159.278 58.0195C159.174 58.0065 159.003 58 158.766 58H158.229C158.141 58 158.061 58.0033 157.989 58.0098L157.984 58C157.997 57.9772 158.004 57.9512 158.004 57.9219C158.004 57.8926 158.001 57.8617 157.994 57.8291C157.991 57.7965 157.978 57.738 157.955 57.6533C157.932 57.5687 157.896 57.4466 157.848 57.2871L157.643 56.6328L155.826 51.4863C156.028 51.4993 156.285 51.5059 156.598 51.5059C156.91 51.5059 157.11 51.4928 157.198 51.4668L158.668 55.9053L159.957 51.4863C160.152 51.4993 160.393 51.5059 160.68 51.5059C161.07 51.5059 161.298 51.4928 161.363 51.4668L159.581 56.6182C159.581 56.6182 159.524 56.8086 159.41 57.1895C159.316 57.515 159.269 57.7266 159.269 57.8242C159.269 57.9186 159.275 57.9788 159.288 58.0049L159.278 58.0195Z" fill="#B0BBC7"/>
<path d="M162.981 51.4863C163.307 51.4993 163.504 51.5059 163.572 51.5059H163.924C164.096 51.5059 164.235 51.4928 164.339 51.4668L164.334 58H162.981V51.4863Z" fill="#B0BBC7"/>
<path d="M167.988 58.0293C167.832 58.0098 167.531 58 167.085 58H166.694V51.4863C166.903 51.4993 167.132 51.5059 167.383 51.5059C167.633 51.5059 167.811 51.4928 167.915 51.4668L169.556 54.2549L171.133 51.4668C171.237 51.4928 171.436 51.5059 171.729 51.5059C172.021 51.5059 172.272 51.4993 172.48 51.4863V58H172.09C171.644 58 171.343 58.0098 171.187 58.0293V53.6543L169.59 56.5107L167.988 53.8838V58.0293Z" fill="#B0BBC7"/>
<path d="M177.956 56.8281C178.158 56.8281 178.298 56.8086 178.376 56.7695L178.396 56.7744L178.347 58H174.689V51.4717C174.777 51.4782 174.875 51.4831 174.982 51.4863L175.324 51.4961C175.552 51.5026 175.799 51.5059 176.066 51.5059C176.812 51.5059 177.549 51.4928 178.278 51.4668C178.243 51.7533 178.225 52.1357 178.225 52.6143C178.225 52.6663 178.228 52.7054 178.234 52.7314L178.225 52.7461C178.055 52.6973 177.814 52.6729 177.502 52.6729H175.964V53.918H177.121C177.479 53.918 177.694 53.9082 177.766 53.8887L177.78 55.0947C177.624 55.0785 177.422 55.0703 177.175 55.0703H175.964V56.8281H177.956Z" fill="#B0BBC7"/>
<path d="M180.243 58C180.263 57.8893 180.272 57.7689 180.272 57.6387V51.5059H181.249L183.837 55.5781V51.8379C183.837 51.6589 183.821 51.5482 183.788 51.5059H185.106C185.09 51.6361 185.082 51.7793 185.082 51.9355V58H184.066L181.518 54.0889V58H180.243Z" fill="#B0BBC7"/>
<path d="M189.684 58.0293C189.527 58.0098 189.125 58 188.478 58H188.321V52.5996H187.354C187.068 52.5996 186.899 52.6143 186.847 52.6436C186.795 52.6729 186.754 52.6989 186.725 52.7217L186.71 52.7168V51.4668L186.725 51.4521C186.832 51.488 187.122 51.5059 187.594 51.5059H190.655C190.942 51.5059 191.111 51.4912 191.163 51.4619C191.215 51.4326 191.256 51.4066 191.285 51.3838L191.3 51.3887V52.6387L191.285 52.6533C191.178 52.6175 190.888 52.5996 190.416 52.5996H189.684V58.0293Z" fill="#B0BBC7"/>
<path d="M193.382 57.2285C193.086 56.9453 192.851 56.6051 192.679 56.208C192.509 55.8109 192.425 55.3763 192.425 54.9043C192.425 54.429 192.505 53.9798 192.664 53.5566C192.824 53.1335 193.051 52.7607 193.348 52.4385C193.644 52.1162 194.002 51.8607 194.422 51.6719C194.842 51.4798 195.312 51.3838 195.833 51.3838C196.731 51.3838 197.488 51.667 198.104 52.2334C198.761 52.8389 199.09 53.6559 199.09 54.6846C199.09 55.6807 198.751 56.5091 198.074 57.1699C197.658 57.5768 197.161 57.8568 196.585 58.0098C196.302 58.0846 195.97 58.1221 195.589 58.1221C195.211 58.1221 194.822 58.0439 194.422 57.8877C194.025 57.7314 193.678 57.5117 193.382 57.2285ZM193.782 54.8359C193.782 55.1387 193.833 55.417 193.934 55.6709C194.035 55.9248 194.174 56.1429 194.354 56.3252C194.734 56.7093 195.224 56.9014 195.823 56.9014C196.393 56.9014 196.85 56.7174 197.195 56.3496C197.547 55.9688 197.723 55.4495 197.723 54.792C197.723 54.1735 197.555 53.6576 197.22 53.2441C196.858 52.8014 196.364 52.5801 195.735 52.5801C195.127 52.5801 194.643 52.8047 194.285 53.2539C193.95 53.6738 193.782 54.2012 193.782 54.8359Z" fill="#B0BBC7"/>
<path d="M206.252 58.1221C205.725 58.1221 205.228 58.0798 204.763 57.9951V51.4619C205.192 51.4098 205.69 51.3838 206.257 51.3838C206.826 51.3838 207.341 51.4619 207.8 51.6182C208.262 51.7712 208.648 51.9909 208.957 52.2773C209.582 52.8503 209.895 53.6527 209.895 54.6846C209.895 55.8402 209.546 56.7174 208.85 57.3164C208.225 57.8535 207.359 58.1221 206.252 58.1221ZM206.032 56.9307C206.244 56.9697 206.455 56.9893 206.667 56.9893C206.879 56.9893 207.106 56.9486 207.351 56.8672C207.595 56.7826 207.806 56.6523 207.985 56.4766C208.369 56.1055 208.562 55.5651 208.562 54.8555C208.562 53.6901 208.137 52.974 207.287 52.707C207.007 52.6191 206.683 52.5752 206.315 52.5752H206.184C206.135 52.5752 206.084 52.5768 206.032 52.5801V56.9307Z" fill="#B0BBC7"/>
<path d="M215.097 56.8281C215.299 56.8281 215.438 56.8086 215.517 56.7695L215.536 56.7744L215.487 58H211.83V51.4717C211.918 51.4782 212.016 51.4831 212.123 51.4863L212.465 51.4961C212.693 51.5026 212.94 51.5059 213.207 51.5059C213.952 51.5059 214.69 51.4928 215.419 51.4668C215.383 51.7533 215.365 52.1357 215.365 52.6143C215.365 52.6663 215.368 52.7054 215.375 52.7314L215.365 52.7461C215.196 52.6973 214.955 52.6729 214.643 52.6729H213.104V53.918H214.262C214.62 53.918 214.835 53.9082 214.906 53.8887L214.921 55.0947C214.765 55.0785 214.563 55.0703 214.315 55.0703H213.104V56.8281H215.097Z" fill="#B0BBC7"/>
<path d="M225.081 51.8672L224.988 53.3027L224.954 53.3125C224.713 52.9512 224.303 52.7168 223.724 52.6094C223.541 52.5736 223.366 52.5557 223.196 52.5557C223.03 52.5557 222.887 52.5703 222.767 52.5996C222.649 52.6289 222.549 52.6712 222.464 52.7266C222.285 52.8438 222.195 52.9967 222.195 53.1855C222.195 53.4329 222.273 53.6185 222.43 53.7422C222.625 53.8919 222.949 53.9977 223.401 54.0596C223.854 54.1182 224.217 54.1995 224.49 54.3037C224.764 54.4079 224.988 54.5397 225.164 54.6992C225.496 54.9987 225.662 55.4219 225.662 55.9688C225.662 56.6849 225.392 57.2367 224.852 57.624C224.389 57.9561 223.807 58.1221 223.104 58.1221C222.537 58.1221 221.977 58.0146 221.424 57.7998C221.242 57.7282 221.082 57.6452 220.945 57.5508L220.999 55.9199L221.019 55.9053C221.422 56.6019 222.085 56.9502 223.006 56.9502C223.66 56.9502 224.093 56.7923 224.305 56.4766C224.376 56.3691 224.412 56.2503 224.412 56.1201C224.412 55.9867 224.391 55.8776 224.349 55.793C224.306 55.7051 224.236 55.6302 224.139 55.5684C223.95 55.4447 223.632 55.3617 223.187 55.3193C222.741 55.277 222.376 55.1973 222.093 55.0801C221.81 54.9629 221.583 54.818 221.414 54.6455C221.108 54.333 220.955 53.8968 220.955 53.3369C220.955 52.7575 221.159 52.2887 221.565 51.9307C221.979 51.5661 222.535 51.3838 223.235 51.3838C223.938 51.3838 224.554 51.5449 225.081 51.8672Z" fill="#B0BBC7"/>
<path d="M228.022 57.2285C227.726 56.9453 227.492 56.6051 227.319 56.208C227.15 55.8109 227.065 55.3763 227.065 54.9043C227.065 54.429 227.145 53.9798 227.305 53.5566C227.464 53.1335 227.692 52.7607 227.988 52.4385C228.285 52.1162 228.643 51.8607 229.062 51.6719C229.482 51.4798 229.953 51.3838 230.474 51.3838C231.372 51.3838 232.129 51.667 232.744 52.2334C233.402 52.8389 233.73 53.6559 233.73 54.6846C233.73 55.6807 233.392 56.5091 232.715 57.1699C232.298 57.5768 231.802 57.8568 231.226 58.0098C230.942 58.0846 230.61 58.1221 230.229 58.1221C229.852 58.1221 229.463 58.0439 229.062 57.8877C228.665 57.7314 228.319 57.5117 228.022 57.2285ZM228.423 54.8359C228.423 55.1387 228.473 55.417 228.574 55.6709C228.675 55.9248 228.815 56.1429 228.994 56.3252C229.375 56.7093 229.865 56.9014 230.464 56.9014C231.034 56.9014 231.491 56.7174 231.836 56.3496C232.188 55.9688 232.363 55.4495 232.363 54.792C232.363 54.1735 232.196 53.6576 231.86 53.2441C231.499 52.8014 231.004 52.5801 230.376 52.5801C229.767 52.5801 229.284 52.8047 228.926 53.2539C228.59 53.6738 228.423 54.2012 228.423 54.8359Z" fill="#B0BBC7"/>
<path d="M238.913 55.1924C238.757 55.1761 238.555 55.168 238.308 55.168H236.828V58H235.49V51.4717C235.578 51.4782 235.679 51.4831 235.793 51.4863L236.154 51.4961C236.402 51.5026 236.659 51.5059 236.926 51.5059C237.727 51.5059 238.492 51.4928 239.221 51.4668C239.185 51.7533 239.167 52.1357 239.167 52.6143C239.167 52.6663 239.17 52.7054 239.177 52.7314L239.167 52.7461C238.994 52.6973 238.754 52.6729 238.444 52.6729H236.828V54.0156H238.254C238.612 54.0156 238.827 54.0059 238.898 53.9863L238.913 55.1924Z" fill="#B0BBC7"/>
<path d="M243.324 58.0293C243.168 58.0098 242.766 58 242.118 58H241.962V52.5996H240.995C240.709 52.5996 240.539 52.6143 240.487 52.6436C240.435 52.6729 240.395 52.6989 240.365 52.7217L240.351 52.7168V51.4668L240.365 51.4521C240.473 51.488 240.762 51.5059 241.234 51.5059H244.296C244.582 51.5059 244.752 51.4912 244.804 51.4619C244.856 51.4326 244.896 51.4066 244.926 51.3838L244.94 51.3887V52.6387L244.926 52.6533C244.818 52.6175 244.529 52.5996 244.057 52.5996H243.324V58.0293Z" fill="#B0BBC7"/>
<path d="M248.814 58.0195C248.717 58.0065 248.551 58 248.316 58H247.75C247.639 58 247.548 58.0033 247.477 58.0098L247.472 58C247.485 57.9772 247.491 57.9512 247.491 57.9219C247.491 57.8926 247.488 57.8617 247.481 57.8291C247.478 57.7965 247.465 57.738 247.442 57.6533C247.423 57.5687 247.392 57.4466 247.35 57.2871L245.689 51.4863C245.898 51.4993 246.15 51.5059 246.446 51.5059C246.743 51.5059 246.935 51.4928 247.022 51.4668L248.175 55.8857L249.298 51.4863C249.347 51.4896 249.391 51.4928 249.43 51.4961H249.537C249.645 51.5026 249.78 51.5059 249.942 51.5059C250.105 51.5059 250.273 51.4928 250.445 51.4668L251.588 55.8857L252.569 51.4863C252.765 51.4993 253.02 51.5059 253.336 51.5059C253.652 51.5059 253.844 51.4928 253.912 51.4668L252.506 56.6182C252.327 57.2106 252.232 57.5622 252.223 57.6729C252.213 57.7835 252.208 57.86 252.208 57.9023C252.208 57.9447 252.215 57.9788 252.228 58.0049L252.218 58.0195C252.114 58.0065 251.949 58 251.725 58C251.529 58 251.352 58 251.192 58C251.033 58 250.917 58.0033 250.846 58.0098L250.841 58C250.854 57.9772 250.86 57.9512 250.86 57.9219C250.86 57.8926 250.859 57.8633 250.855 57.834C250.852 57.8047 250.842 57.7493 250.826 57.668C250.813 57.5833 250.79 57.4596 250.758 57.2969L250.626 56.6328L249.825 53.5908L249.063 56.6182C248.907 57.2399 248.826 57.598 248.819 57.6924C248.806 57.8714 248.808 57.9756 248.824 58.0049L248.814 58.0195Z" fill="#B0BBC7"/>
<path d="M255.813 58.0391C255.534 58.013 255.206 58 254.832 58H254.446L256.57 52.0479C256.665 51.7809 256.712 51.6263 256.712 51.584C256.712 51.5384 256.71 51.5107 256.707 51.501L256.712 51.4912C256.924 51.501 257.148 51.5059 257.386 51.5059C257.581 51.5059 257.815 51.5026 258.089 51.4961L258.094 51.5059C258.087 51.5189 258.084 51.5368 258.084 51.5596C258.084 51.6214 258.133 51.7858 258.23 52.0527L260.398 58.0146C260.333 58.0114 260.257 58.0098 260.169 58.0098C260.169 58.0098 260.084 58.0065 259.915 58C259.834 58 259.76 58 259.695 58H258.938L258.479 56.5938H256.272L255.813 58.0391ZM258.099 55.4219L257.361 53.1514L256.644 55.4219H258.099Z" fill="#B0BBC7"/>
<path d="M263.789 55.4756C263.691 55.4821 263.587 55.4854 263.477 55.4854C263.366 55.4854 263.201 55.4772 262.983 55.4609V58H261.689V51.4717C262.145 51.4131 262.705 51.3838 263.369 51.3838C264.274 51.3838 264.948 51.5514 265.391 51.8867C265.837 52.2188 266.06 52.7331 266.06 53.4297C266.06 53.9701 265.856 54.4323 265.449 54.8164C265.316 54.9401 265.163 55.0475 264.99 55.1387L265.986 57.2383C266.182 57.6712 266.331 57.9284 266.436 58.0098L266.411 58.0342C266.095 57.9821 265.599 57.9837 264.922 58.0391L263.789 55.4756ZM263.462 52.5361C263.296 52.5361 263.136 52.5443 262.983 52.5605V54.4258C263.143 54.4486 263.33 54.46 263.545 54.46C263.76 54.46 263.94 54.4421 264.087 54.4062C264.233 54.3672 264.36 54.3086 264.468 54.2305C264.699 54.0579 264.814 53.7992 264.814 53.4541C264.814 53.109 264.694 52.8665 264.453 52.7266C264.229 52.5996 263.898 52.5361 263.462 52.5361Z" fill="#B0BBC7"/>
<path d="M271.286 56.8281C271.488 56.8281 271.628 56.8086 271.706 56.7695L271.726 56.7744L271.677 58H268.02V51.4717C268.107 51.4782 268.205 51.4831 268.312 51.4863L268.654 51.4961C268.882 51.5026 269.13 51.5059 269.396 51.5059C270.142 51.5059 270.879 51.4928 271.608 51.4668C271.573 51.7533 271.555 52.1357 271.555 52.6143C271.555 52.6663 271.558 52.7054 271.564 52.7314L271.555 52.7461C271.385 52.6973 271.145 52.6729 270.832 52.6729H269.294V53.918H270.451C270.809 53.918 271.024 53.9082 271.096 53.8887L271.11 55.0947C270.954 55.0785 270.752 55.0703 270.505 55.0703H269.294V56.8281H271.286Z" fill="#B0BBC7"/>
</svg>
