<svg width="33" height="34" viewBox="0 0 33 34" fill="none" xmlns="http://www.w3.org/2000/svg">
<path fill-rule="evenodd" clip-rule="evenodd" d="M16.5 33.2727C25.6127 33.2727 33 25.8854 33 16.7727C33 7.66001 25.6127 0.272705 16.5 0.272705C7.3873 0.272705 0 7.66001 0 16.7727C0 25.8854 7.3873 33.2727 16.5 33.2727ZM7.05409 9.28446V9.5901L8.85744 11.7531C8.93209 11.8511 9.07903 12.0823 9.0696 12.2233C9.06017 12.3644 9.06567 18.0188 9.0696 20.8283C9.0696 20.9968 9.02717 21.3644 8.85744 21.4867L6.81836 23.9436V24.2727H12.4759V23.9553L10.3426 21.3809C10.2954 21.326 10.2011 21.1387 10.2011 20.8283V13.4812L15.1633 24.2727H15.7526L20.0076 13.4929V22.2743C20.0036 22.3213 19.984 22.42 19.9368 22.4389C19.8897 22.4577 18.8485 23.4812 18.3339 23.9906V24.2727H25.7712V24.0023L24.2036 22.4389C24.1761 22.4036 24.1211 22.3213 24.1211 22.2743V11.3769C24.1172 11.3299 24.1234 11.2218 24.18 11.1653L25.8184 9.5901V9.27271H20.5615L16.8252 18.5595L12.5702 9.28446H7.05409Z" fill="#D81159"/>
</svg>
