<svg width="33" height="34" viewBox="0 0 33 34" fill="inheritColor"
    xmlns="http://www.w3.org/2000/svg">
    <path
        d="M29.0909 0C30.0553 0 30.9803 0.387372 31.6622 1.0769C32.3442 1.76643 32.7273 2.70163 32.7273 3.67677V29.4141C32.7273 30.3893 32.3442 31.3245 31.6622 32.014C30.9803 32.7035 30.0553 33.0909 29.0909 33.0909H3.63636C2.67194 33.0909 1.74702 32.7035 1.06507 32.014C0.383116 31.3245 0 30.3893 0 29.4141V3.67677C0 2.70163 0.383116 1.76643 1.06507 1.0769C1.74702 0.387372 2.67194 0 3.63636 0H29.0909ZM28.1818 28.4949V18.7515C28.1818 17.162 27.5573 15.6377 26.4458 14.5137C25.3342 13.3898 23.8266 12.7584 22.2545 12.7584C20.7091 12.7584 18.9091 13.7143 18.0364 15.1483V13.1077H12.9636V28.4949H18.0364V19.4317C18.0364 18.0162 19.1636 16.858 20.5636 16.858C21.2387 16.858 21.8862 17.1291 22.3635 17.6118C22.8409 18.0945 23.1091 18.7491 23.1091 19.4317V28.4949H28.1818ZM7.05455 10.2214C7.86466 10.2214 8.6416 9.89602 9.21444 9.31682C9.78727 8.73761 10.1091 7.95205 10.1091 7.13293C10.1091 5.42323 8.74545 4.02606 7.05455 4.02606C6.23961 4.02606 5.45805 4.35339 4.8818 4.93604C4.30555 5.51869 3.98182 6.30894 3.98182 7.13293C3.98182 8.84263 5.36364 10.2214 7.05455 10.2214ZM9.58182 28.4949V13.1077H4.54545V28.4949H9.58182Z"
        fill="inheritColor" />
</svg>