<?xml version="1.0" standalone="no"?>
<!DOCTYPE svg PUBLIC "-//W3C//DTD SVG 20010904//EN"
 "http://www.w3.org/TR/2001/REC-SVG-20010904/DTD/svg10.dtd">
<svg version="1.0" xmlns="http://www.w3.org/2000/svg"
 width="830.000000pt" height="830.000000pt" viewBox="0 0 830.000000 830.000000"
 preserveAspectRatio="xMidYMid meet">
<metadata>
Created by potrace 1.14, written by Peter Selinger 2001-2017
</metadata>
<g transform="translate(0.000000,830.000000) scale(0.100000,-0.100000)"
fill="#000000" stroke="none">
<path d="M3845 8294 c-16 -2 -79 -9 -140 -15 -1112 -110 -2173 -709 -2862
-1616 -453 -596 -719 -1255 -820 -2028 -26 -202 -26 -769 0 -970 137 -1048
609 -1949 1374 -2625 643 -568 1390 -902 2268 -1017 202 -26 769 -26 970 0
874 115 1629 453 2265 1015 770 680 1240 1577 1377 2627 26 202 26 769 0 970
-100 763 -363 1417 -807 2010 -616 822 -1531 1394 -2535 1585 -265 50 -396 62
-735 65 -179 2 -338 1 -355 -1z m1723 -2737 c750 -749 1370 -1375 1376 -1390
7 -16 11 -39 9 -52 -3 -13 -90 -108 -202 -219 -179 -178 -200 -196 -231 -196
-33 0 -93 58 -967 932 -883 882 -934 932 -967 932 -24 0 -44 -8 -61 -24 l-25
-23 0 -396 0 -396 756 -756 c670 -670 755 -759 756 -787 1 -27 -21 -55 -182
-222 -101 -105 -197 -198 -213 -207 -17 -8 -40 -12 -54 -8 -15 3 -203 186
-469 454 -244 247 -457 454 -474 461 -32 13 -64 9 -95 -14 -20 -14 -20 -29
-25 -1015 l-5 -1001 -147 -147 c-127 -127 -151 -146 -178 -146 -27 0 -52 20
-183 151 l-152 152 -5 991 c-5 976 -5 991 -25 1005 -31 23 -63 27 -95 14 -17
-7 -227 -212 -469 -456 -274 -276 -449 -446 -465 -450 -42 -10 -77 19 -269
219 -153 159 -180 192 -180 218 0 27 85 116 751 782 l752 752 0 396 0 396 -23
21 c-13 12 -38 25 -56 28 -32 7 -41 -2 -965 -925 -872 -872 -934 -931 -966
-931 -31 0 -52 18 -223 188 -104 103 -195 200 -202 217 -9 20 -10 37 -4 55 11
28 2723 2747 2754 2760 11 5 29 6 40 3 11 -3 634 -618 1383 -1366z"/>
</g>
</svg>
