<svg width="33" height="34" viewBox="0 0 33 34" fill="inheritColor"
    xmlns="http://www.w3.org/2000/svg">
    <path
        d="M16.3636 0.181885C14.2147 0.181885 12.0869 0.620471 10.1015 1.4726C8.11622 2.32473 6.3123 3.57372 4.7928 5.14825C1.72402 8.32816 0 12.641 0 17.1381C0 24.6328 4.69636 30.9914 11.1927 33.2465C12.0109 33.3822 12.2727 32.8565 12.2727 32.3987V29.5331C7.74 30.5505 6.77455 27.261 6.77455 27.261C6.02182 25.2941 4.95818 24.7684 4.95818 24.7684C3.46909 23.7171 5.07273 23.751 5.07273 23.751C6.70909 23.8697 7.57636 25.4975 7.57636 25.4975C9 28.0749 11.4055 27.3118 12.3382 26.9049C12.4855 25.8027 12.9109 25.0567 13.3691 24.6328C9.73636 24.2089 5.92364 22.7506 5.92364 16.2903C5.92364 14.4082 6.54545 12.8991 7.60909 11.6952C7.44545 11.2713 6.87273 9.50781 7.77273 7.21872C7.77273 7.21872 9.14727 6.7609 12.2727 8.94825C13.5655 8.57522 14.9727 8.3887 16.3636 8.3887C17.7545 8.3887 19.1618 8.57522 20.4545 8.94825C23.58 6.7609 24.9545 7.21872 24.9545 7.21872C25.8545 9.50781 25.2818 11.2713 25.1182 11.6952C26.1818 12.8991 26.8036 14.4082 26.8036 16.2903C26.8036 22.7676 22.9745 24.1919 19.3255 24.6158C19.9145 25.1415 20.4545 26.1758 20.4545 27.7527V32.3987C20.4545 32.8565 20.7164 33.3991 21.5509 33.2465C28.0473 30.9744 32.7273 24.6328 32.7273 17.1381C32.7273 14.9114 32.304 12.7065 31.4817 10.6492C30.6593 8.59202 29.454 6.72278 27.9345 5.14825C26.415 3.57372 24.6111 2.32473 22.6257 1.4726C20.6404 0.620471 18.5125 0.181885 16.3636 0.181885Z"
        fill="inheritColor" />
</svg>