<svg width="362" height="67" viewBox="0 0 362 67" fill="none" xmlns="http://www.w3.org/2000/svg">
<mask id="mask0_327_61" style="mask-type:alpha" maskUnits="userSpaceOnUse" x="0" y="0" width="66" height="67">
<rect y="0.573242" width="66" height="65.8535" fill="#D81159"/>
</mask>
<g mask="url(#mask0_327_61)">
<path fill-rule="evenodd" clip-rule="evenodd" d="M15.5747 14.2885L13.718 16.1453C3.99169 25.8715 3.99168 41.6409 13.7179 51.3672L15.5747 53.2239C25.301 62.9502 41.0704 62.9502 50.7966 53.224L52.6534 51.3672C62.3797 41.6409 62.3797 25.8715 52.6534 16.1453L50.7966 14.2885C41.0704 4.56224 25.301 4.56223 15.5747 14.2885ZM10.6101 13.0374C-0.832527 24.4801 -0.832545 43.0323 10.6101 54.475L12.4669 56.3318C23.9096 67.7744 42.4618 67.7744 53.9044 56.3318L55.7612 54.475C67.2039 43.0323 67.2039 24.4801 55.7612 13.0375L53.9045 11.1807C42.4618 -0.261973 23.9096 -0.261989 12.4669 11.1807L10.6101 13.0374Z" fill="#D81159"/>
</g>
<path d="M53.4398 34.1678L50.8347 36.7789C50.5936 37.0206 50.2024 37.0206 49.9612 36.7789L36.6617 23.4483C36.2728 23.0584 35.6074 23.3343 35.6074 23.8854V29.0661C35.6074 29.2301 35.6724 29.3873 35.7881 29.5033L46.5538 40.2941C46.7947 40.5356 46.7947 40.9269 46.5538 41.1684L43.9488 43.7795C43.7076 44.0212 43.3164 44.0212 43.0753 43.7795L36.6617 37.3509C36.2728 36.9611 35.6074 37.237 35.6074 37.7881V51.8258C35.6074 51.9897 35.5425 52.147 35.4268 52.2629L33.6082 54.0858C33.367 54.3275 32.9758 54.3275 32.7347 54.0858L30.8696 52.2164C30.7539 52.1004 30.6889 51.9432 30.6889 51.7792L30.6889 37.8581C30.6889 37.307 30.0236 37.0312 29.6347 37.421L23.291 43.7795C23.0498 44.0212 22.6586 44.0212 22.4174 43.7795L19.8124 41.1684C19.5715 40.9269 19.5715 40.5356 19.8124 40.2941L30.5082 29.5733C30.6239 29.4573 30.6889 29.3001 30.6889 29.1362V23.9555C30.6889 23.4044 30.0236 23.1285 29.6347 23.5183L16.4051 36.7789C16.1639 37.0206 15.7727 37.0206 15.5316 36.7789L12.9265 34.1678C12.6856 33.9263 12.6856 33.535 12.9265 33.2935L32.7463 13.4273C32.9875 13.1855 33.3787 13.1855 33.6199 13.4273L53.4398 33.2935C53.6807 33.535 53.6807 33.9263 53.4398 34.1678Z" fill="#D81159"/>
<path d="M96.6406 26.0159C96.1406 25.9638 95.4948 25.9377 94.7031 25.9377H89.9688V35.0002H85.6875V14.1096C85.9688 14.1305 86.2917 14.1461 86.6562 14.1565L87.8125 14.1877C88.6042 14.2086 89.4271 14.219 90.2812 14.219C92.8438 14.219 95.2917 14.1773 97.625 14.094C97.5104 15.0107 97.4531 16.2346 97.4531 17.7659C97.4531 17.9325 97.4635 18.0575 97.4844 18.1409L97.4531 18.1877C96.901 18.0315 96.1302 17.9534 95.1406 17.9534H89.9688V22.2502H94.5312C95.6771 22.2502 96.3646 22.219 96.5938 22.1565L96.6406 26.0159ZM116.269 31.2502C116.915 31.2502 117.363 31.1877 117.613 31.0627L117.676 31.0784L117.519 35.0002H105.816V14.1096C106.097 14.1305 106.41 14.1461 106.754 14.1565L107.847 14.1877C108.577 14.2086 109.368 14.219 110.222 14.219C112.608 14.219 114.967 14.1773 117.301 14.094C117.186 15.0107 117.129 16.2346 117.129 17.7659C117.129 17.9325 117.139 18.0575 117.16 18.1409L117.129 18.1877C116.587 18.0315 115.816 17.9534 114.816 17.9534H109.894V21.9377H113.597C114.743 21.9377 115.431 21.9065 115.66 21.844L115.707 25.7034C115.207 25.6513 114.561 25.6252 113.769 25.6252H109.894V31.2502H116.269ZM129.054 35.0002C127.523 35.0002 126.507 35.0315 126.007 35.094V14.1252C126.257 14.1877 126.773 14.219 127.554 14.219C128.346 14.219 129.263 14.1982 130.304 14.1565V31.2502H133.539C134.476 31.2502 135.226 31.219 135.789 31.1565C135.716 33.594 135.679 34.8596 135.679 34.9534V35.1096C134.659 35.0367 132.945 35.0002 130.539 35.0002H129.054ZM144.027 14.1565C145.069 14.1982 145.699 14.219 145.917 14.219H147.042C147.595 14.219 148.037 14.1773 148.371 14.094L148.355 35.0002H144.027V14.1565ZM158.093 14.1096C159.541 13.9221 161.025 13.8284 162.546 13.8284C165.38 13.8284 167.531 14.495 168.999 15.8284C170.479 17.1513 171.218 19.1357 171.218 21.7815C171.218 24.1461 170.411 26.0159 168.796 27.3909C167.286 28.6825 165.343 29.3284 162.968 29.3284C162.697 29.3284 162.4 29.3127 162.077 29.2815V35.0002H158.093V14.1096ZM163.015 17.594C162.702 17.594 162.39 17.6044 162.077 17.6252V25.844C162.411 25.8857 162.817 25.9065 163.296 25.9065C163.775 25.9065 164.275 25.8075 164.796 25.6096C165.317 25.4013 165.755 25.1148 166.109 24.7502C166.848 23.9898 167.218 22.9898 167.218 21.7502C167.218 18.9794 165.817 17.594 163.015 17.594ZM189.034 31.2502C189.68 31.2502 190.128 31.1877 190.378 31.0627L190.441 31.0784L190.284 35.0002H178.581V14.1096C178.863 14.1305 179.175 14.1461 179.519 14.1565L180.613 14.1877C181.342 14.2086 182.133 14.219 182.988 14.219C185.373 14.219 187.732 14.1773 190.066 14.094C189.951 15.0107 189.894 16.2346 189.894 17.7659C189.894 17.9325 189.904 18.0575 189.925 18.1409L189.894 18.1877C189.352 18.0315 188.581 17.9534 187.581 17.9534H182.659V21.9377H186.363C187.508 21.9377 188.196 21.9065 188.425 21.844L188.472 25.7034C187.972 25.6513 187.326 25.6252 186.534 25.6252H182.659V31.2502H189.034ZM215.073 35.1252C214.177 35.0419 213.13 35.0002 211.932 35.0002H210.698L217.495 15.9534C217.797 15.0992 217.948 14.6044 217.948 14.469C217.948 14.3232 217.943 14.2346 217.932 14.2034L217.948 14.1721C218.625 14.2034 219.344 14.219 220.104 14.219C220.729 14.219 221.479 14.2086 222.354 14.1877L222.37 14.219C222.349 14.2607 222.339 14.318 222.339 14.3909C222.339 14.5888 222.495 15.1148 222.807 15.969L229.745 35.0471C229.537 35.0367 229.292 35.0315 229.011 35.0315C229.011 35.0315 228.74 35.0211 228.198 35.0002C227.938 35.0002 227.703 35.0002 227.495 35.0002H225.073L223.604 30.5002H216.542L215.073 35.1252ZM222.386 26.7502L220.026 19.4846L217.729 26.7502H222.386ZM239.483 35.0002C237.952 35.0002 236.936 35.0315 236.436 35.094V14.1252C236.686 14.1877 237.202 14.219 237.983 14.219C238.775 14.219 239.691 14.1982 240.733 14.1565V31.2502H243.967C244.905 31.2502 245.655 31.219 246.217 31.1565C246.145 33.594 246.108 34.8596 246.108 34.9534V35.1096C245.087 35.0367 243.374 35.0002 240.967 35.0002H239.483ZM264.424 31.2502C265.07 31.2502 265.518 31.1877 265.768 31.0627L265.831 31.0784L265.674 35.0002H253.971V14.1096C254.253 14.1305 254.565 14.1461 254.909 14.1565L256.003 14.1877C256.732 14.2086 257.523 14.219 258.378 14.219C260.763 14.219 263.122 14.1773 265.456 14.094C265.341 15.0107 265.284 16.2346 265.284 17.7659C265.284 17.9325 265.294 18.0575 265.315 18.1409L265.284 18.1877C264.742 18.0315 263.971 17.9534 262.971 17.9534H258.049V21.9377H261.753C262.898 21.9377 263.586 21.9065 263.815 21.844L263.862 25.7034C263.362 25.6513 262.716 25.6252 261.924 25.6252H258.049V31.2502H264.424ZM274.303 35.0002C274.366 34.6461 274.397 34.2607 274.397 33.844V14.219H277.522L285.803 27.2502V15.2815C285.803 14.7086 285.751 14.3544 285.647 14.219H289.866C289.814 14.6357 289.788 15.094 289.788 15.594V35.0002H286.538L278.381 22.4846V35.0002H274.303ZM308.885 13.8284C310.833 13.8284 312.494 14.1669 313.869 14.844V19.6252L313.838 19.6565C313.255 18.7607 312.026 18.1669 310.151 17.8752C309.599 17.7815 308.901 17.7346 308.057 17.7346C307.213 17.7346 306.385 17.8961 305.572 18.219C304.76 18.5315 304.093 18.9794 303.572 19.5627C302.562 20.6982 302.057 22.318 302.057 24.4221C302.057 26.87 302.697 28.693 303.979 29.8909C305.041 30.8909 306.447 31.3909 308.197 31.3909C310.177 31.3909 311.781 30.969 313.01 30.1252C313.458 29.8232 313.838 29.4482 314.151 29.0002L314.197 29.0315V33.4065C312.604 34.7294 310.458 35.3909 307.76 35.3909C304.583 35.3909 302.093 34.3805 300.291 32.3596C298.562 30.4325 297.697 27.8805 297.697 24.7034C297.697 21.3388 298.645 18.6877 300.541 16.7502C302.458 14.8023 305.239 13.8284 308.885 13.8284ZM323.811 35.1252C322.915 35.0419 321.868 35.0002 320.67 35.0002H319.436L326.232 15.9534C326.535 15.0992 326.686 14.6044 326.686 14.469C326.686 14.3232 326.68 14.2346 326.67 14.2034L326.686 14.1721C327.363 14.2034 328.081 14.219 328.842 14.219C329.467 14.219 330.217 14.2086 331.092 14.1877L331.107 14.219C331.087 14.2607 331.076 14.318 331.076 14.3909C331.076 14.5888 331.232 15.1148 331.545 15.969L338.482 35.0471C338.274 35.0367 338.029 35.0315 337.748 35.0315C337.748 35.0315 337.477 35.0211 336.936 35.0002C336.675 35.0002 336.441 35.0002 336.232 35.0002H333.811L332.342 30.5002H325.279L323.811 35.1252ZM331.123 26.7502L328.764 19.4846L326.467 26.7502H331.123ZM351.892 26.9221C351.58 26.943 351.247 26.9534 350.892 26.9534C350.538 26.9534 350.012 26.9273 349.314 26.8752V35.0002H345.174V14.1096C346.632 13.9221 348.424 13.8284 350.549 13.8284C353.445 13.8284 355.601 14.3648 357.017 15.4377C358.445 16.5002 359.158 18.1461 359.158 20.3752C359.158 22.1044 358.507 23.5836 357.205 24.8127C356.778 25.2086 356.288 25.5523 355.736 25.844L358.924 32.5627C359.549 33.9482 360.028 34.7711 360.361 35.0315L360.283 35.1096C359.273 34.943 357.684 34.9482 355.517 35.1252L351.892 26.9221ZM350.846 17.5159C350.314 17.5159 349.804 17.5419 349.314 17.594V23.5627C349.825 23.6357 350.424 23.6721 351.111 23.6721C351.799 23.6721 352.377 23.6148 352.846 23.5002C353.314 23.3752 353.721 23.1877 354.064 22.9377C354.804 22.3857 355.174 21.5575 355.174 20.4534C355.174 19.3492 354.788 18.5732 354.017 18.1252C353.299 17.719 352.241 17.5159 350.846 17.5159Z" fill="#D81159"/>
<path d="M88.3906 56.1711C87.6523 56.1711 86.9574 56.1119 86.3057 55.9934V46.8469C86.9072 46.774 87.6045 46.7375 88.3975 46.7375C89.195 46.7375 89.915 46.8469 90.5576 47.0657C91.2048 47.2799 91.7448 47.5875 92.1777 47.9885C93.0527 48.7906 93.4902 49.914 93.4902 51.3586C93.4902 52.9765 93.0026 54.2047 92.0273 55.0432C91.1523 55.7952 89.9401 56.1711 88.3906 56.1711ZM88.083 54.5032C88.3792 54.5579 88.6755 54.5852 88.9717 54.5852C89.2679 54.5852 89.5869 54.5282 89.9287 54.4143C90.2705 54.2958 90.5667 54.1135 90.8174 53.8674C91.3551 53.3479 91.624 52.5914 91.624 51.5979C91.624 49.9664 91.0293 48.9638 89.8398 48.5901C89.4479 48.467 88.9945 48.4055 88.4795 48.4055H88.2949C88.2266 48.4055 88.1559 48.4078 88.083 48.4124V54.5032ZM102.313 54.3596C102.596 54.3596 102.792 54.3323 102.901 54.2776L102.928 54.2844L102.86 56.0002H97.74V46.8606C97.863 46.8697 97.9998 46.8765 98.1502 46.8811L98.6287 46.8948C98.9477 46.9039 99.294 46.9084 99.6677 46.9084C100.711 46.9084 101.744 46.8902 102.764 46.8538C102.714 47.2548 102.689 47.7903 102.689 48.4602C102.689 48.5331 102.694 48.5878 102.703 48.6243L102.689 48.6448C102.452 48.5764 102.115 48.5422 101.677 48.5422H99.5242V50.2854H101.144C101.646 50.2854 101.946 50.2717 102.047 50.2444L102.067 51.9329C101.848 51.9101 101.566 51.8987 101.219 51.8987H99.5242V54.3596H102.313ZM112.483 47.4143L112.353 49.4241L112.305 49.4377C111.968 48.9319 111.394 48.6038 110.583 48.4534C110.327 48.4032 110.081 48.3782 109.844 48.3782C109.612 48.3782 109.411 48.3987 109.243 48.4397C109.079 48.4807 108.937 48.54 108.819 48.6174C108.568 48.7815 108.443 48.9957 108.443 49.26C108.443 49.6064 108.552 49.8661 108.771 50.0393C109.044 50.2489 109.498 50.3971 110.131 50.4836C110.765 50.5657 111.273 50.6796 111.656 50.8254C112.039 50.9713 112.353 51.1558 112.599 51.3792C113.064 51.7984 113.296 52.3909 113.296 53.1565C113.296 54.1591 112.918 54.9316 112.162 55.4739C111.515 55.9387 110.699 56.1711 109.714 56.1711C108.921 56.1711 108.138 56.0208 107.363 55.72C107.108 55.6197 106.884 55.5035 106.693 55.3713L106.768 53.0881L106.795 53.0676C107.361 54.0429 108.288 54.5305 109.578 54.5305C110.494 54.5305 111.1 54.3095 111.396 53.8674C111.496 53.717 111.546 53.5507 111.546 53.3684C111.546 53.1816 111.517 53.0289 111.458 52.9104C111.398 52.7874 111.3 52.6825 111.164 52.5959C110.899 52.4228 110.455 52.3066 109.831 52.2473C109.206 52.1881 108.696 52.0764 108.299 51.9124C107.903 51.7483 107.586 51.5455 107.349 51.304C106.921 50.8665 106.707 50.2558 106.707 49.4719C106.707 48.6607 106.991 48.0045 107.561 47.5032C108.14 46.9928 108.919 46.7375 109.899 46.7375C110.883 46.7375 111.745 46.9631 112.483 47.4143ZM121.969 54.3596C122.252 54.3596 122.448 54.3323 122.557 54.2776L122.584 54.2844L122.516 56.0002H117.396V46.8606C117.519 46.8697 117.656 46.8765 117.806 46.8811L118.284 46.8948C118.603 46.9039 118.95 46.9084 119.324 46.9084C120.367 46.9084 121.399 46.8902 122.42 46.8538C122.37 47.2548 122.345 47.7903 122.345 48.4602C122.345 48.5331 122.35 48.5878 122.359 48.6243L122.345 48.6448C122.108 48.5764 121.771 48.5422 121.333 48.5422H119.18V50.2854H120.8C121.301 50.2854 121.602 50.2717 121.702 50.2444L121.723 51.9329C121.504 51.9101 121.222 51.8987 120.875 51.8987H119.18V54.3596H121.969ZM126.711 56.0002C126.738 55.8453 126.752 55.6767 126.752 55.4944V46.9084H128.119L131.742 52.6096V47.3733C131.742 47.1226 131.719 46.9677 131.674 46.9084H133.52C133.497 47.0907 133.485 47.2913 133.485 47.51V56.0002H132.064L128.495 50.5247V56.0002H126.711ZM142.076 56.0276C141.93 56.0094 141.691 56.0002 141.358 56.0002H140.606C140.483 56.0002 140.372 56.0048 140.271 56.0139L140.264 56.0002C140.283 55.9683 140.292 55.9319 140.292 55.8909C140.292 55.8499 140.287 55.8066 140.278 55.761C140.274 55.7154 140.255 55.6334 140.223 55.5149C140.192 55.3964 140.141 55.2255 140.073 55.0022L139.786 54.0862L137.243 46.8811C137.526 46.8993 137.886 46.9084 138.323 46.9084C138.761 46.9084 139.041 46.8902 139.164 46.8538L141.221 53.0676L143.026 46.8811C143.3 46.8993 143.637 46.9084 144.038 46.9084C144.585 46.9084 144.904 46.8902 144.995 46.8538L142.5 54.0657C142.5 54.0657 142.42 54.3323 142.261 54.8655C142.128 55.3212 142.062 55.6174 142.062 55.7542C142.062 55.8863 142.071 55.9706 142.09 56.0071L142.076 56.0276ZM149.334 54.9202C148.919 54.5237 148.591 54.0474 148.349 53.4915C148.112 52.9355 147.994 52.3271 147.994 51.6663C147.994 51.0009 148.105 50.372 148.329 49.7795C148.552 49.1871 148.871 48.6653 149.286 48.2141C149.7 47.7629 150.202 47.4052 150.79 47.1409C151.377 46.872 152.036 46.7375 152.765 46.7375C154.023 46.7375 155.083 47.134 155.944 47.927C156.864 48.7747 157.325 49.9185 157.325 51.3586C157.325 52.7532 156.851 53.913 155.903 54.8381C155.32 55.4078 154.625 55.7997 153.818 56.0139C153.421 56.1187 152.957 56.1711 152.423 56.1711C151.895 56.1711 151.35 56.0618 150.79 55.843C150.234 55.6243 149.748 55.3167 149.334 54.9202ZM149.894 51.5706C149.894 51.9944 149.965 52.384 150.106 52.7395C150.247 53.095 150.443 53.4003 150.694 53.6555C151.227 54.1933 151.913 54.4622 152.752 54.4622C153.549 54.4622 154.189 54.2047 154.672 53.6897C155.165 53.1565 155.411 52.4296 155.411 51.509C155.411 50.6431 155.176 49.9208 154.707 49.342C154.201 48.7222 153.508 48.4124 152.628 48.4124C151.776 48.4124 151.1 48.7268 150.598 49.3557C150.129 49.9436 149.894 50.6819 149.894 51.5706ZM162.661 56.0002C161.992 56.0002 161.547 56.0139 161.328 56.0413V46.8674C161.438 46.8948 161.663 46.9084 162.005 46.9084C162.352 46.9084 162.753 46.8993 163.208 46.8811V54.3596H164.623C165.034 54.3596 165.362 54.3459 165.608 54.3186C165.576 55.385 165.56 55.9387 165.56 55.9797V56.0481C165.113 56.0162 164.364 56.0002 163.311 56.0002H162.661ZM173.31 56.0276C173.164 56.0094 172.925 56.0002 172.592 56.0002H171.84C171.717 56.0002 171.605 56.0048 171.505 56.0139L171.498 56.0002C171.516 55.9683 171.525 55.9319 171.525 55.8909C171.525 55.8499 171.521 55.8066 171.512 55.761C171.507 55.7154 171.489 55.6334 171.457 55.5149C171.425 55.3964 171.375 55.2255 171.307 55.0022L171.02 54.0862L168.477 46.8811C168.759 46.8993 169.119 46.9084 169.557 46.9084C169.994 46.9084 170.274 46.8902 170.398 46.8538L172.455 53.0676L174.26 46.8811C174.533 46.8993 174.871 46.9084 175.272 46.9084C175.818 46.9084 176.137 46.8902 176.229 46.8538L173.733 54.0657C173.733 54.0657 173.654 54.3323 173.494 54.8655C173.362 55.3212 173.296 55.6174 173.296 55.7542C173.296 55.8863 173.305 55.9706 173.323 56.0071L173.31 56.0276ZM180.034 46.8811C180.49 46.8993 180.765 46.9084 180.861 46.9084H181.353C181.595 46.9084 181.789 46.8902 181.934 46.8538L181.928 56.0002H180.034V46.8811ZM188.584 56.0413C188.365 56.0139 187.943 56.0002 187.319 56.0002H186.772V46.8811C187.064 46.8993 187.385 46.9084 187.736 46.9084C188.087 46.9084 188.335 46.8902 188.481 46.8538L190.778 50.7571L192.986 46.8538C193.132 46.8902 193.41 46.9084 193.82 46.9084C194.23 46.9084 194.581 46.8993 194.873 46.8811V56.0002H194.326C193.701 56.0002 193.28 56.0139 193.061 56.0413V49.9163L190.826 53.9153L188.584 50.2375V56.0413ZM204.078 54.3596C204.361 54.3596 204.557 54.3323 204.666 54.2776L204.694 54.2844L204.625 56.0002H199.505V46.8606C199.628 46.8697 199.765 46.8765 199.915 46.8811L200.394 46.8948C200.713 46.9039 201.059 46.9084 201.433 46.9084C202.477 46.9084 203.509 46.8902 204.53 46.8538C204.48 47.2548 204.454 47.7903 204.454 48.4602C204.454 48.5331 204.459 48.5878 204.468 48.6243L204.454 48.6448C204.217 48.5764 203.88 48.5422 203.443 48.5422H201.289V50.2854H202.91C203.411 50.2854 203.712 50.2717 203.812 50.2444L203.832 51.9329C203.614 51.9101 203.331 51.8987 202.985 51.8987H201.289V54.3596H204.078ZM208.82 56.0002C208.848 55.8453 208.861 55.6767 208.861 55.4944V46.9084H210.229L213.852 52.6096V47.3733C213.852 47.1226 213.829 46.9677 213.783 46.9084H215.629C215.606 47.0907 215.595 47.2913 215.595 47.51V56.0002H214.173L210.605 50.5247V56.0002H208.82ZM223.577 56.0413C223.358 56.0139 222.795 56.0002 221.889 56.0002H221.67V48.4397H220.316C219.915 48.4397 219.678 48.4602 219.605 48.5012C219.532 48.5422 219.475 48.5787 219.434 48.6106L219.414 48.6038V46.8538L219.434 46.8333C219.585 46.8834 219.99 46.9084 220.651 46.9084H224.937C225.338 46.9084 225.575 46.8879 225.648 46.8469C225.721 46.8059 225.778 46.7694 225.819 46.7375L225.84 46.7444V48.4944L225.819 48.5149C225.669 48.4648 225.263 48.4397 224.602 48.4397H223.577V56.0413ZM230.295 54.9202C229.88 54.5237 229.552 54.0474 229.31 53.4915C229.073 52.9355 228.955 52.3271 228.955 51.6663C228.955 51.0009 229.066 50.372 229.29 49.7795C229.513 49.1871 229.832 48.6653 230.247 48.2141C230.661 47.7629 231.163 47.4052 231.751 47.1409C232.339 46.872 232.997 46.7375 233.726 46.7375C234.984 46.7375 236.044 47.134 236.905 47.927C237.825 48.7747 238.286 49.9185 238.286 51.3586C238.286 52.7532 237.812 53.913 236.864 54.8381C236.281 55.4078 235.586 55.7997 234.779 56.0139C234.382 56.1187 233.918 56.1711 233.384 56.1711C232.856 56.1711 232.311 56.0618 231.751 55.843C231.195 55.6243 230.709 55.3167 230.295 54.9202ZM230.855 51.5706C230.855 51.9944 230.926 52.384 231.067 52.7395C231.208 53.095 231.404 53.4003 231.655 53.6555C232.188 54.1933 232.874 54.4622 233.713 54.4622C234.51 54.4622 235.15 54.2047 235.633 53.6897C236.126 53.1565 236.372 52.4296 236.372 51.509C236.372 50.6431 236.137 49.9208 235.668 49.342C235.162 48.7222 234.469 48.4124 233.589 48.4124C232.737 48.4124 232.061 48.7268 231.559 49.3557C231.09 49.9436 230.855 50.6819 230.855 51.5706ZM251.393 56.1711C250.654 56.1711 249.959 56.1119 249.308 55.9934V46.8469C249.909 46.774 250.607 46.7375 251.4 46.7375C252.197 46.7375 252.917 46.8469 253.56 47.0657C254.207 47.2799 254.747 47.5875 255.18 47.9885C256.055 48.7906 256.492 49.914 256.492 51.3586C256.492 52.9765 256.005 54.2047 255.029 55.0432C254.154 55.7952 252.942 56.1711 251.393 56.1711ZM251.085 54.5032C251.381 54.5579 251.678 54.5852 251.974 54.5852C252.27 54.5852 252.589 54.5282 252.931 54.4143C253.273 54.2958 253.569 54.1135 253.819 53.8674C254.357 53.3479 254.626 52.5914 254.626 51.5979C254.626 49.9664 254.031 48.9638 252.842 48.5901C252.45 48.467 251.997 48.4055 251.482 48.4055H251.297C251.229 48.4055 251.158 48.4078 251.085 48.4124V54.5032ZM265.315 54.3596C265.598 54.3596 265.794 54.3323 265.903 54.2776L265.931 54.2844L265.862 56.0002H260.742V46.8606C260.865 46.8697 261.002 46.8765 261.152 46.8811L261.631 46.8948C261.95 46.9039 262.296 46.9084 262.67 46.9084C263.713 46.9084 264.746 46.8902 265.767 46.8538C265.716 47.2548 265.691 47.7903 265.691 48.4602C265.691 48.5331 265.696 48.5878 265.705 48.6243L265.691 48.6448C265.454 48.5764 265.117 48.5422 264.68 48.5422H262.526V50.2854H264.146C264.648 50.2854 264.948 50.2717 265.049 50.2444L265.069 51.9329C264.851 51.9101 264.568 51.8987 264.222 51.8987H262.526V54.3596H265.315ZM282.373 47.4143L282.244 49.4241L282.196 49.4377C281.859 48.9319 281.284 48.6038 280.473 48.4534C280.218 48.4032 279.972 48.3782 279.735 48.3782C279.502 48.3782 279.302 48.3987 279.133 48.4397C278.969 48.4807 278.828 48.54 278.709 48.6174C278.459 48.7815 278.333 48.9957 278.333 49.26C278.333 49.6064 278.443 49.8661 278.662 50.0393C278.935 50.2489 279.388 50.3971 280.022 50.4836C280.655 50.5657 281.164 50.6796 281.546 50.8254C281.929 50.9713 282.244 51.1558 282.49 51.3792C282.955 51.7984 283.187 52.3909 283.187 53.1565C283.187 54.1591 282.809 54.9316 282.052 55.4739C281.405 55.9387 280.589 56.1711 279.605 56.1711C278.812 56.1711 278.028 56.0208 277.253 55.72C276.998 55.6197 276.775 55.5035 276.583 55.3713L276.659 53.0881L276.686 53.0676C277.251 54.0429 278.178 54.5305 279.468 54.5305C280.384 54.5305 280.99 54.3095 281.287 53.8674C281.387 53.717 281.437 53.5507 281.437 53.3684C281.437 53.1816 281.407 53.0289 281.348 52.9104C281.289 52.7874 281.191 52.6825 281.054 52.5959C280.79 52.4228 280.345 52.3066 279.721 52.2473C279.097 52.1881 278.586 52.0764 278.19 51.9124C277.793 51.7483 277.477 51.5455 277.24 51.304C276.811 50.8665 276.597 50.2558 276.597 49.4719C276.597 48.6607 276.882 48.0045 277.452 47.5032C278.03 46.9928 278.81 46.7375 279.789 46.7375C280.774 46.7375 281.635 46.9631 282.373 47.4143ZM288.031 54.9202C287.617 54.5237 287.289 54.0474 287.047 53.4915C286.81 52.9355 286.692 52.3271 286.692 51.6663C286.692 51.0009 286.803 50.372 287.027 49.7795C287.25 49.1871 287.569 48.6653 287.984 48.2141C288.398 47.7629 288.9 47.4052 289.488 47.1409C290.075 46.872 290.734 46.7375 291.463 46.7375C292.721 46.7375 293.78 47.134 294.642 47.927C295.562 48.7747 296.023 49.9185 296.023 51.3586C296.023 52.7532 295.549 53.913 294.601 54.8381C294.017 55.4078 293.322 55.7997 292.516 56.0139C292.119 56.1187 291.654 56.1711 291.121 56.1711C290.593 56.1711 290.048 56.0618 289.488 55.843C288.932 55.6243 288.446 55.3167 288.031 54.9202ZM288.592 51.5706C288.592 51.9944 288.663 52.384 288.804 52.7395C288.945 53.095 289.141 53.4003 289.392 53.6555C289.925 54.1933 290.611 54.4622 291.449 54.4622C292.247 54.4622 292.887 54.2047 293.37 53.6897C293.863 53.1565 294.109 52.4296 294.109 51.509C294.109 50.6431 293.874 49.9208 293.404 49.342C292.899 48.7222 292.206 48.4124 291.326 48.4124C290.474 48.4124 289.797 48.7268 289.296 49.3557C288.827 49.9436 288.592 50.6819 288.592 51.5706ZM304.818 52.0696C304.6 52.0468 304.317 52.0354 303.971 52.0354H301.899V56.0002H300.026V46.8606C300.149 46.8697 300.291 46.8765 300.45 46.8811L300.956 46.8948C301.302 46.9039 301.662 46.9084 302.036 46.9084C303.157 46.9084 304.228 46.8902 305.249 46.8538C305.199 47.2548 305.174 47.7903 305.174 48.4602C305.174 48.5331 305.178 48.5878 305.187 48.6243L305.174 48.6448C304.932 48.5764 304.595 48.5422 304.162 48.5422H301.899V50.4221H303.895C304.397 50.4221 304.698 50.4084 304.798 50.3811L304.818 52.0696ZM312.534 56.0413C312.315 56.0139 311.752 56.0002 310.845 56.0002H310.627V48.4397H309.273C308.872 48.4397 308.635 48.4602 308.562 48.5012C308.489 48.5422 308.432 48.5787 308.391 48.6106L308.371 48.6038V46.8538L308.391 46.8333C308.542 46.8834 308.947 46.9084 309.608 46.9084H313.894C314.295 46.9084 314.532 46.8879 314.605 46.8469C314.678 46.8059 314.735 46.7694 314.776 46.7375L314.797 46.7444V48.4944L314.776 48.5149C314.626 48.4648 314.22 48.4397 313.559 48.4397H312.534V56.0413ZM321.76 56.0276C321.624 56.0094 321.391 56.0002 321.063 56.0002H320.27C320.115 56.0002 319.987 56.0048 319.887 56.0139L319.88 56.0002C319.899 55.9683 319.908 55.9319 319.908 55.8909C319.908 55.8499 319.903 55.8066 319.894 55.761C319.889 55.7154 319.871 55.6334 319.839 55.5149C319.812 55.3964 319.769 55.2255 319.709 55.0022L317.385 46.8811C317.677 46.8993 318.03 46.9084 318.445 46.9084C318.86 46.9084 319.128 46.8902 319.251 46.8538L320.865 53.0403L322.437 46.8811C322.505 46.8857 322.567 46.8902 322.622 46.8948H322.772C322.922 46.9039 323.111 46.9084 323.339 46.9084C323.567 46.9084 323.802 46.8902 324.043 46.8538L325.643 53.0403L327.017 46.8811C327.291 46.8993 327.648 46.9084 328.09 46.9084C328.532 46.9084 328.801 46.8902 328.897 46.8538L326.928 54.0657C326.678 54.8951 326.545 55.3873 326.532 55.5422C326.518 55.6972 326.511 55.8043 326.511 55.8635C326.511 55.9228 326.52 55.9706 326.539 56.0071L326.525 56.0276C326.379 56.0094 326.149 56.0002 325.834 56.0002C325.561 56.0002 325.313 56.0002 325.089 56.0002C324.866 56.0002 324.704 56.0048 324.604 56.0139L324.597 56.0002C324.615 55.9683 324.624 55.9319 324.624 55.8909C324.624 55.8499 324.622 55.8088 324.618 55.7678C324.613 55.7268 324.599 55.6493 324.577 55.5354C324.558 55.4169 324.527 55.2437 324.481 55.0159L324.296 54.0862L323.175 49.8274L322.109 54.0657C321.89 54.9361 321.776 55.4374 321.767 55.5696C321.749 55.8202 321.751 55.9661 321.774 56.0071L321.76 56.0276ZM333.099 56.0549C332.707 56.0185 332.249 56.0002 331.725 56.0002H331.185L334.158 47.6672C334.291 47.2935 334.357 47.0771 334.357 47.0178C334.357 46.954 334.354 46.9153 334.35 46.9016L334.357 46.8879C334.653 46.9016 334.967 46.9084 335.3 46.9084C335.573 46.9084 335.902 46.9039 336.284 46.8948L336.291 46.9084C336.282 46.9267 336.278 46.9517 336.278 46.9836C336.278 47.0702 336.346 47.3004 336.483 47.6741L339.518 56.0208C339.427 56.0162 339.32 56.0139 339.197 56.0139C339.197 56.0139 339.078 56.0094 338.841 56.0002C338.727 56.0002 338.625 56.0002 338.533 56.0002H337.474L336.831 54.0315H333.741L333.099 56.0549ZM336.298 52.3909L335.266 49.2122L334.261 52.3909H336.298ZM345.805 52.4661C345.668 52.4752 345.522 52.4797 345.367 52.4797C345.212 52.4797 344.982 52.4683 344.677 52.4456V56.0002H342.865V46.8606C343.503 46.7786 344.287 46.7375 345.217 46.7375C346.484 46.7375 347.427 46.9722 348.047 47.4417C348.671 47.9065 348.983 48.6265 348.983 49.6018C348.983 50.3583 348.699 51.0055 348.129 51.5432C347.942 51.7164 347.728 51.8668 347.486 51.9944L348.881 54.9338C349.154 55.54 349.364 55.9 349.51 56.0139L349.476 56.0481C349.034 55.9752 348.339 55.9775 347.391 56.0549L345.805 52.4661ZM345.347 48.3508C345.114 48.3508 344.891 48.3622 344.677 48.385V50.9963C344.9 51.0282 345.162 51.0442 345.463 51.0442C345.764 51.0442 346.017 51.0191 346.222 50.969C346.427 50.9143 346.604 50.8323 346.755 50.7229C347.078 50.4814 347.24 50.1191 347.24 49.636C347.24 49.1529 347.072 48.8134 346.734 48.6174C346.42 48.4397 345.957 48.3508 345.347 48.3508ZM357.841 54.3596C358.123 54.3596 358.319 54.3323 358.428 54.2776L358.456 54.2844L358.387 56.0002H353.267V46.8606C353.39 46.8697 353.527 46.8765 353.677 46.8811L354.156 46.8948C354.475 46.9039 354.821 46.9084 355.195 46.9084C356.239 46.9084 357.271 46.8902 358.292 46.8538C358.242 47.2548 358.217 47.7903 358.217 48.4602C358.217 48.5331 358.221 48.5878 358.23 48.6243L358.217 48.6448C357.98 48.5764 357.642 48.5422 357.205 48.5422H355.052V50.2854H356.672C357.173 50.2854 357.474 50.2717 357.574 50.2444L357.594 51.9329C357.376 51.9101 357.093 51.8987 356.747 51.8987H355.052V54.3596H357.841Z" fill="#090909" fill-opacity="0.75"/>
</svg>
